M48
; DRILL file {KiCad 8.0.6} date 2024-11-17T02:17:31-0700
; FORMAT={-:-/ absolute / inch / decimal}
; #@! TF.CreationDate,2024-11-17T02:17:31-07:00
; #@! TF.GenerationSoftware,Kicad,Pcbnew,8.0.6
; #@! TF.FileFunction,Plated,1,2,PTH
FMAT,2
INCH
; #@! TA.AperFunction,Plated,PTH,ViaDrill
T1C0.0157
; #@! TA.AperFunction,Plated,PTH,ComponentDrill
T2C0.0157
; #@! TA.AperFunction,Plated,PTH,ComponentDrill
T3C0.0236
; #@! TA.AperFunction,Plated,PTH,ComponentDrill
T4C0.0276
; #@! TA.AperFunction,Plated,PTH,ComponentDrill
T5C0.0315
; #@! TA.AperFunction,Plated,PTH,ComponentDrill
T6C0.0394
; #@! TA.AperFunction,Plated,PTH,ComponentDrill
T7C0.0433
%
G90
G05
T1
X3.7705Y-9.3112
X4.5205Y-9.3312
X5.2705Y-9.3547
X5.8022Y-7.7267
X5.9059Y-7.7769
X5.9962Y-8.7567
X6.0205Y-9.3547
X6.0556Y-7.7681
X6.2128Y-7.7492
X6.3559Y-7.7635
X6.565Y-7.8299
X6.7049Y-7.7688
X6.7331Y-8.7936
X6.8624Y-7.8082
X7.015Y-7.7442
X7.1577Y-7.8082
X7.4962Y-8.7667
X7.5205Y-9.3749
X8.2705Y-9.2375
X8.5431Y-8.7398
X8.5831Y-8.704
X8.5962Y-7.8978
X8.6131Y-8.5967
X8.6531Y-8.6328
X8.7031Y-8.6667
X8.9962Y-8.7667
X9.0205Y-9.2609
X9.0257Y-7.7501
X9.2246Y-7.7688
X9.3821Y-7.8082
X9.5431Y-7.9517
X9.6499Y-7.8785
X9.7363Y-8.7667
X9.7705Y-9.2844
X9.8213Y-7.8612
X10.5205Y-9.3078
X10.5761Y-8.0694
X10.604Y-8.1167
T2
X4.3963Y-7.634
X4.3963Y-7.6872
X4.4297Y-7.634
X4.4297Y-7.6872
X4.4632Y-7.634
X4.4632Y-7.6872
X4.4967Y-7.634
X4.4967Y-7.6872
X4.5301Y-7.634
X4.5301Y-7.6872
X4.5636Y-7.634
X4.5636Y-7.6872
X4.5971Y-7.634
X4.5971Y-7.6872
X4.6305Y-7.634
X4.6305Y-7.6872
T3
X8.5113Y-8.0692
X8.5113Y-8.1283
T4
X4.2962Y-7.8211
X4.2962Y-8.0211
X4.4463Y-7.8211
X4.4463Y-8.0211
X4.5962Y-7.8167
X4.5962Y-8.0167
X4.7462Y-7.8167
X4.7462Y-8.0167
X8.8413Y-8.0367
X8.8413Y-8.2367
T5
X4.3662Y-8.1967
X4.3662Y-8.3442
X4.6662Y-8.1967
X4.6662Y-8.3442
X4.9931Y-7.5986
X4.9931Y-7.8986
X4.9931Y-8.0486
X4.9931Y-8.3486
X5.1431Y-7.4986
X5.1431Y-7.7986
X5.1431Y-7.9486
X5.1431Y-8.2486
X5.2931Y-7.5986
X5.2931Y-7.8986
X5.2931Y-8.0486
X5.2931Y-8.3486
X5.4431Y-7.4986
X5.4431Y-7.7986
X5.4431Y-7.9486
X5.4431Y-8.2486
X5.5931Y-7.5986
X5.5931Y-7.8986
X5.5931Y-8.0486
X5.5931Y-8.3486
X5.8022Y-7.4986
X5.8022Y-7.7986
X5.8022Y-7.9486
X5.8022Y-8.2486
X5.9522Y-7.5986
X5.9522Y-7.8986
X5.9522Y-8.0486
X5.9522Y-8.3486
X6.1022Y-7.4986
X6.1022Y-7.7986
X6.1022Y-7.9486
X6.1022Y-8.2486
X6.2522Y-7.5986
X6.2522Y-7.8986
X6.2522Y-8.0486
X6.2522Y-8.3486
X6.4022Y-7.4986
X6.4022Y-7.7986
X6.4022Y-7.9486
X6.4022Y-8.2486
X6.6112Y-7.5986
X6.6112Y-7.8986
X6.6112Y-8.0486
X6.6112Y-8.3486
X6.7612Y-7.4986
X6.7612Y-7.7986
X6.7612Y-7.9486
X6.7612Y-8.2486
X6.9112Y-7.5986
X6.9112Y-7.8986
X6.9112Y-8.0486
X6.9112Y-8.3486
X7.0612Y-7.4986
X7.0612Y-7.7986
X7.0612Y-7.9486
X7.0612Y-8.2486
X7.2112Y-7.5986
X7.2112Y-7.8986
X7.2112Y-8.0486
X7.2112Y-8.3486
X7.5447Y-7.6286
X7.5447Y-7.9286
X7.5462Y-8.0715
X7.5462Y-8.3667
X7.6447Y-7.6286
X7.6447Y-7.9286
X7.7363Y-8.1155
X7.7363Y-8.3076
X7.7447Y-7.6286
X7.7447Y-7.9286
X7.8447Y-7.6286
X7.8447Y-7.9286
X7.9262Y-8.0715
X7.9262Y-8.3667
X7.9447Y-7.6286
X7.9447Y-7.9286
X8.0447Y-7.6286
X8.0447Y-7.9286
X8.046Y-8.0692
X8.0494Y-7.5086
X8.1447Y-7.6286
X8.1447Y-7.9286
X8.2447Y-7.6286
X8.2447Y-7.9286
X8.3413Y-8.0692
X8.3447Y-7.5086
X8.3447Y-7.6286
X8.3447Y-7.9286
X8.4447Y-7.6286
X8.4447Y-7.9286
X8.5447Y-7.6286
X8.5447Y-7.9286
X8.6447Y-7.6286
X8.6447Y-7.9286
X8.6962Y-8.0367
X8.6962Y-8.3367
X8.7447Y-7.6286
X8.7447Y-7.9286
X8.8447Y-7.6286
X8.8447Y-7.9286
X9.175Y-7.5986
X9.175Y-7.8986
X9.175Y-8.0486
X9.175Y-8.3486
X9.325Y-7.4986
X9.325Y-7.7986
X9.325Y-7.9486
X9.325Y-8.2486
X9.475Y-7.5986
X9.475Y-7.8986
X9.475Y-8.0486
X9.475Y-8.3486
X9.625Y-7.4986
X9.625Y-7.7986
X9.625Y-7.9486
X9.625Y-8.2486
X9.775Y-7.5986
X9.775Y-7.8986
X9.775Y-8.0486
X9.775Y-8.3486
X9.9841Y-7.4986
X9.9841Y-7.7986
X9.9841Y-7.9486
X9.9841Y-8.2486
X10.1341Y-7.5986
X10.1341Y-7.8986
X10.1341Y-8.0486
X10.1341Y-8.3486
X10.2841Y-7.4986
X10.2841Y-7.7986
X10.4341Y-7.5986
X10.4341Y-7.8986
X10.4341Y-8.0486
X10.4341Y-8.3486
X10.5841Y-7.4986
X10.5841Y-7.7986
T6
X3.895Y-7.8067
X3.895Y-7.9067
X3.895Y-8.0067
X3.995Y-7.8067
X3.995Y-7.9067
X3.995Y-8.0067
T7
X10.7933Y-7.9064
X10.7933Y-8.1623
X10.7937Y-7.5045
X10.7937Y-7.7604
X10.9705Y-7.9064
X10.9705Y-8.1623
X10.9709Y-7.5045
X10.9709Y-7.7604
T3
G00X4.3431Y-7.5313
M15
G01X4.3431Y-7.4998
M16
G05
G00X4.3431Y-7.6781
M15
G01X4.3431Y-7.6191
M16
G05
G00X4.6837Y-7.5313
M15
G01X4.6837Y-7.4998
M16
G05
G00X4.6837Y-7.6781
M15
G01X4.6837Y-7.6191
M16
G05
M30
