<?xml version="1.0" standalone="no"?>
 <!DOCTYPE svg PUBLIC "-//W3C//DTD SVG 1.1//EN" 
 "http://www.w3.org/Graphics/SVG/1.1/DTD/svg11.dtd"> 
<svg
  xmlns:svg="http://www.w3.org/2000/svg"
  xmlns="http://www.w3.org/2000/svg"
  xmlns:xlink="http://www.w3.org/1999/xlink"
  version="1.1"
  width="419.9890mm" height="594.0044mm" viewBox="0.0000 0.0000 419.9890 594.0044">
<title>SVG Image created as framework-Edge_Cuts.svg date 2024/11/17 05:29:48 </title>
  <desc>Image generated by PCBNEW </desc>
<g style="fill:#000000; fill-opacity:1.0000;stroke:#000000; stroke-opacity:1.0000;
stroke-linecap:round; stroke-linejoin:round;"
 transform="translate(0 0) scale(1 1)">
</g>
<g style="fill:none; 
stroke:#000000; stroke-width:0.0500; stroke-opacity:1; 
stroke-linecap:round; stroke-linejoin:round;">
<path d="M219.8679 163.3036
L205.8679 163.3036
" />
<path d="M91.5679 450.5286
L91.5679 326.7036
" />
<path d="M96.3304 319.9411
L91.5679 319.9411
" />
<path d="M96.3304 79.8161
L282.0679 79.8161
" />
<path d="M106.1054 321.9411
L96.3304 321.9411
" />
<path d="M243.6804 177.3036
L243.6804 163.3036
" />
<path d="M260.1054 321.9411
L282.0679 321.9411
" />
<path d="M91.5679 315.1786
L91.5679 319.9411
" />
<path d="M205.8679 163.3036
L205.8679 177.3036
" />
<path d="M229.6804 177.3036
L243.6804 177.3036
" />
<path d="M196.0554 177.3036
L196.0554 163.3036
" />
<path d="M260.1054 319.9411
L282.0679 319.9411
" />
<path d="M243.6804 163.3036
L229.6804 163.3036
" />
<path d="M260.1054 184.5911
L282.0679 184.5911
" />
<path d="M196.0554 163.3036
L182.0554 163.3036
" />
<path d="M96.3304 319.9411
L106.1054 319.9411
" />
<path d="M229.6804 163.3036
L229.6804 177.3036
" />
<path d="M282.0679 455.2911
L96.3304 455.2911
" />
<path d="M260.1054 186.5911
L282.0679 186.5911
" />
<path d="M219.8679 177.3036
L219.8679 163.3036
" />
<path d="M191.5804 101.1036
L205.5804 101.1036
" />
<path d="M248.7304 158.2536
L262.7304 158.2536
" />
<path d="M248.7304 106.1536
L248.7304 120.1536
" />
<path d="M262.7304 106.1536
L248.7304 106.1536
" />
<path d="M172.5304 144.2536
L172.5304 158.2536
" />
<path d="M248.7304 144.2536
L248.7304 158.2536
" />
<path d="M172.5304 158.2536
L186.5304 158.2536
" />
<path d="M248.7304 120.1536
L262.7304 120.1536
" />
<path d="M281.7804 120.1536
L281.7804 106.1536
" />
<path d="M286.8304 326.7036 A4.7625 4.7625 0.0 0 0 282.0679 321.9411" />
<path d="M243.6804 144.2536
L229.6804 144.2536
" />
<path d="M272.2554 139.2036
L272.2554 125.2036
" />
<path d="M267.7804 101.1036
L281.7804 101.1036
" />
<path d="M262.7304 158.2536
L262.7304 144.2536
" />
<path d="M172.5304 101.1036
L186.5304 101.1036
" />
<path d="M258.2554 125.2036
L258.2554 139.2036
" />
<path d="M186.5304 87.1036
L172.5304 87.1036
" />
<path d="M267.7804 158.2536
L281.7804 158.2536
" />
<path d="M281.7804 144.2536
L267.7804 144.2536
" />
<path d="M182.0554 139.2036
L196.0554 139.2036
" />
<path d="M258.2554 139.2036
L272.2554 139.2036
" />
<path d="M186.5304 106.1536
L172.5304 106.1536
" />
<path d="M224.6304 101.1036
L224.6304 87.1036
" />
<path d="M224.6304 87.1036
L210.6304 87.1036
" />
<path d="M243.6804 120.1536
L243.6804 106.1536
" />
<path d="M91.5679 191.3536
L91.5679 315.1786
" />
<path d="M205.5804 120.1536
L205.5804 106.1536
" />
<path d="M182.0554 125.2036
L182.0554 139.2036
" />
<path d="M267.7804 120.1536
L281.7804 120.1536
" />
<path d="M129.3804 177.3036
L129.3804 163.3036
" />
<path d="M262.7304 144.2536
L248.7304 144.2536
" />
<path d="M110.3304 163.3036
L96.3304 163.3036
" />
<path d="M281.7804 158.2536
L281.7804 144.2536
" />
<path d="M110.3304 177.3036
L110.3304 163.3036
" />
<path d="M286.8304 84.5786 A4.7625 4.7625 0.0 0 0 282.0679 79.8161" />
<path d="M115.3804 163.3036
L115.3804 177.3036
" />
<path d="M182.0554 163.3036
L182.0554 177.3036
" />
<path d="M262.7304 101.1036
L262.7304 87.1036
" />
<path d="M262.7304 87.1036
L248.7304 87.1036
" />
<path d="M282.0679 319.9411 A4.7625 4.7625 0.0 0 0 286.8304 315.1786" />
<path d="M267.7804 144.2536
L267.7804 158.2536
" />
<path d="M253.2054 125.2036
L239.2054 125.2036
" />
<path d="M286.8304 315.1786
L286.8304 191.3536
" />
<path d="M182.0554 177.3036
L196.0554 177.3036
" />
<path d="M115.3804 177.3036
L129.3804 177.3036
" />
<path d="M91.5679 315.1786 A4.7625 4.7625 0.0 0 0 96.3304 319.9411" />
<path d="M282.0679 455.2911 A4.7625 4.7625 0.0 0 0 286.8304 450.5286" />
<path d="M91.5679 179.8286 A4.7625 4.7625 0.0 0 0 96.3304 184.5911" />
<path d="M91.5679 450.5286 A4.7625 4.7625 0.0 0 0 96.3304 455.2911" />
<path d="M96.3304 79.8161 A4.7625 4.7625 0.0 0 0 91.5679 84.5786" />
<path d="M96.3304 163.3036
L96.3304 177.3036
" />
<path d="M186.5304 101.1036
L186.5304 87.1036
" />
<path d="M286.8304 326.7036
L286.8304 450.5286
" />
<path d="M191.5804 120.1536
L205.5804 120.1536
" />
<path d="M153.4804 87.1036
L153.4804 101.1036
" />
<path d="M234.1554 125.2036
L220.1554 125.2036
" />
<path d="M220.1554 125.2036
L220.1554 139.2036
" />
<path d="M210.1054 184.5911 A1.0000 1.0000 0.0 0 0 210.1054 186.5911" />
<path d="M191.5804 144.2536
L191.5804 158.2536
" />
<path d="M172.5304 120.1536
L186.5304 120.1536
" />
<path d="M215.1054 125.2036
L201.1054 125.2036
" />
<path d="M157.9554 125.2036
L143.9554 125.2036
" />
<path d="M172.5304 106.1536
L172.5304 120.1536
" />
<path d="M205.5804 144.2536
L191.5804 144.2536
" />
<path d="M205.5804 87.1036
L191.5804 87.1036
" />
<path d="M134.4304 106.1536
L134.4304 120.1536
" />
<path d="M201.1054 139.2036
L215.1054 139.2036
" />
<path d="M186.5304 158.2536
L186.5304 144.2536
" />
<path d="M205.5804 158.2536
L205.5804 144.2536
" />
<path d="M143.9554 125.2036
L143.9554 139.2036
" />
<path d="M153.4804 101.1036
L167.4804 101.1036
" />
<path d="M210.6304 101.1036
L224.6304 101.1036
" />
<path d="M210.6304 144.2536
L210.6304 158.2536
" />
<path d="M110.1054 184.5911 A1.0000 1.0000 0.0 0 0 110.1054 186.5911" />
<path d="M215.1054 139.2036
L215.1054 125.2036
" />
<path d="M167.4804 101.1036
L167.4804 87.1036
" />
<path d="M201.1054 125.2036
L201.1054 139.2036
" />
<path d="M272.2554 125.2036
L258.2554 125.2036
" />
<path d="M224.6304 158.2536
L224.6304 144.2536
" />
<path d="M148.4304 106.1536
L134.4304 106.1536
" />
<path d="M191.5804 106.1536
L191.5804 120.1536
" />
<path d="M167.4804 87.1036
L153.4804 87.1036
" />
<path d="M206.1054 186.5911 A1.0000 1.0000 0.0 1 0 206.1054 184.5911" />
<path d="M260.1054 184.5911 A1.0000 1.0000 0.0 0 0 260.1054 186.5911" />
<path d="M220.1554 139.2036
L234.1554 139.2036
" />
<path d="M134.4304 120.1536
L148.4304 120.1536
" />
<path d="M224.6304 106.1536
L210.6304 106.1536
" />
<path d="M210.6304 158.2536
L224.6304 158.2536
" />
<path d="M224.6304 120.1536
L224.6304 106.1536
" />
<path d="M191.5804 158.2536
L205.5804 158.2536
" />
<path d="M267.7804 106.1536
L267.7804 120.1536
" />
<path d="M186.5304 120.1536
L186.5304 106.1536
" />
<path d="M110.1054 184.5911
L156.1054 184.5911
" />
<path d="M224.6304 144.2536
L210.6304 144.2536
" />
<path d="M148.4304 101.1036
L148.4304 87.1036
" />
<path d="M196.0554 125.2036
L182.0554 125.2036
" />
<path d="M234.1554 139.2036
L234.1554 125.2036
" />
<path d="M205.5804 101.1036
L205.5804 87.1036
" />
<path d="M205.5804 106.1536
L191.5804 106.1536
" />
<path d="M210.6304 120.1536
L224.6304 120.1536
" />
<path d="M256.1054 186.5911 A1.0000 1.0000 0.0 1 0 256.1054 184.5911" />
<path d="M160.1054 184.5911
L206.1054 184.5911
" />
<path d="M282.0679 184.5911 A4.7625 4.7625 0.0 0 0 286.8304 179.8286" />
<path d="M260.1054 319.9411 A1.0000 1.0000 0.0 0 0 260.1054 321.9411" />
<path d="M160.1054 319.9411 A1.0000 1.0000 0.0 0 0 160.1054 321.9411" />
<path d="M156.1054 321.9411 A1.0000 1.0000 0.0 1 0 156.1054 319.9411" />
<path d="M206.1054 321.9411 A1.0000 1.0000 0.0 1 0 206.1054 319.9411" />
<path d="M229.6804 120.1536
L243.6804 120.1536
" />
<path d="M160.1054 319.9411
L206.1054 319.9411
" />
<path d="M210.1054 321.9411
L256.1054 321.9411
" />
<path d="M91.5679 179.8286
L91.5679 84.5786
" />
<path d="M256.1054 321.9411 A1.0000 1.0000 0.0 1 0 256.1054 319.9411" />
<path d="M160.1054 184.5911 A1.0000 1.0000 0.0 0 0 160.1054 186.5911" />
<path d="M96.3304 321.9411 A4.7625 4.7625 0.0 0 0 91.5679 326.7036" />
<path d="M210.1054 319.9411
L256.1054 319.9411
" />
<path d="M106.1054 321.9411 A1.0000 1.0000 0.0 1 0 106.1054 319.9411" />
<path d="M281.7804 163.3036
L267.7804 163.3036
" />
<path d="M248.7304 163.3036
L248.7304 177.3036
" />
<path d="M153.4804 120.1536
L167.4804 120.1536
" />
<path d="M153.4804 158.2536
L167.4804 158.2536
" />
<path d="M153.4804 106.1536
L153.4804 120.1536
" />
<path d="M96.3304 186.5911
L106.1054 186.5911
" />
<path d="M177.0054 139.2036
L177.0054 125.2036
" />
<path d="M138.9054 139.2036
L138.9054 125.2036
" />
<path d="M129.3804 158.2536
L129.3804 144.2536
" />
<path d="M267.7804 87.1036
L267.7804 101.1036
" />
<path d="M243.6804 158.2536
L243.6804 144.2536
" />
<path d="M167.4804 144.2536
L153.4804 144.2536
" />
<path d="M167.4804 106.1536
L153.4804 106.1536
" />
<path d="M243.6804 106.1536
L229.6804 106.1536
" />
<path d="M243.6804 87.1036
L229.6804 87.1036
" />
<path d="M229.6804 144.2536
L229.6804 158.2536
" />
<path d="M210.1054 186.5911
L256.1054 186.5911
" />
<path d="M148.4304 120.1536
L148.4304 106.1536
" />
<path d="M156.1054 186.5911 A1.0000 1.0000 0.0 1 0 156.1054 184.5911" />
<path d="M134.4304 101.1036
L148.4304 101.1036
" />
<path d="M167.4804 120.1536
L167.4804 106.1536
" />
<path d="M110.1054 321.9411
L156.1054 321.9411
" />
<path d="M110.1054 319.9411
L156.1054 319.9411
" />
<path d="M267.7804 163.3036
L267.7804 177.3036
" />
<path d="M248.7304 177.3036
L262.7304 177.3036
" />
<path d="M262.7304 163.3036
L248.7304 163.3036
" />
<path d="M253.2054 139.2036
L253.2054 125.2036
" />
<path d="M153.4804 144.2536
L153.4804 158.2536
" />
<path d="M286.8304 191.3536 A4.7625 4.7625 0.0 0 0 282.0679 186.5911" />
<path d="M163.0054 125.2036
L163.0054 139.2036
" />
<path d="M134.4304 158.2536
L148.4304 158.2536
" />
<path d="M160.1054 321.9411
L206.1054 321.9411
" />
<path d="M210.1054 319.9411 A1.0000 1.0000 0.0 0 0 210.1054 321.9411" />
<path d="M110.1054 186.5911
L156.1054 186.5911
" />
<path d="M163.0054 139.2036
L177.0054 139.2036
" />
<path d="M191.5804 87.1036
L191.5804 101.1036
" />
<path d="M229.6804 158.2536
L243.6804 158.2536
" />
<path d="M281.7804 101.1036
L281.7804 87.1036
" />
<path d="M229.6804 87.1036
L229.6804 101.1036
" />
<path d="M129.3804 163.3036
L115.3804 163.3036
" />
<path d="M196.0554 139.2036
L196.0554 125.2036
" />
<path d="M210.1054 184.5911
L256.1054 184.5911
" />
<path d="M281.7804 106.1536
L267.7804 106.1536
" />
<path d="M110.1054 319.9411 A1.0000 1.0000 0.0 0 0 110.1054 321.9411" />
<path d="M205.8679 177.3036
L219.8679 177.3036
" />
<path d="M106.1054 186.5911 A1.0000 1.0000 0.0 1 0 106.1054 184.5911" />
<path d="M160.1054 186.5911
L206.1054 186.5911
" />
<path d="M239.2054 125.2036
L239.2054 139.2036
" />
<path d="M262.7304 120.1536
L262.7304 106.1536
" />
<path d="M248.7304 101.1036
L262.7304 101.1036
" />
<path d="M239.2054 139.2036
L253.2054 139.2036
" />
<path d="M177.0054 125.2036
L163.0054 125.2036
" />
<path d="M281.7804 177.3036
L281.7804 163.3036
" />
<path d="M124.9054 125.2036
L124.9054 139.2036
" />
<path d="M129.3804 106.1536
L115.3804 106.1536
" />
<path d="M110.3304 106.1536
L96.3304 106.1536
" />
<path d="M134.4304 163.3036
L134.4304 177.3036
" />
<path d="M119.8554 139.2036
L119.8554 125.2036
" />
<path d="M96.3304 144.2536
L96.3304 158.2536
" />
<path d="M96.3304 186.5911 A4.7625 4.7625 0.0 0 0 91.5679 191.3536" />
<path d="M110.3304 158.2536
L110.3304 144.2536
" />
<path d="M267.7804 177.3036
L281.7804 177.3036
" />
<path d="M158.2429 163.3036
L158.2429 177.3036
" />
<path d="M172.2429 163.3036
L158.2429 163.3036
" />
<path d="M158.2429 177.3036
L172.2429 177.3036
" />
<path d="M115.3804 120.1536
L129.3804 120.1536
" />
<path d="M148.4304 163.3036
L134.4304 163.3036
" />
<path d="M148.4304 177.3036
L148.4304 163.3036
" />
<path d="M96.3304 177.3036
L110.3304 177.3036
" />
<path d="M143.9554 139.2036
L157.9554 139.2036
" />
<path d="M115.3804 158.2536
L129.3804 158.2536
" />
<path d="M148.4304 144.2536
L134.4304 144.2536
" />
<path d="M157.9554 139.2036
L157.9554 125.2036
" />
<path d="M172.5304 87.1036
L172.5304 101.1036
" />
<path d="M210.6304 87.1036
L210.6304 101.1036
" />
<path d="M115.3804 101.1036
L129.3804 101.1036
" />
<path d="M110.3304 87.1036
L96.3304 87.1036
" />
<path d="M134.4304 177.3036
L148.4304 177.3036
" />
<path d="M129.3804 87.1036
L115.3804 87.1036
" />
<path d="M115.3804 87.1036
L115.3804 101.1036
" />
<path d="M96.3304 101.1036
L110.3304 101.1036
" />
<path d="M96.3304 184.5911
L106.1054 184.5911
" />
<path d="M129.3804 101.1036
L129.3804 87.1036
" />
<path d="M115.3804 144.2536
L115.3804 158.2536
" />
<path d="M148.4304 158.2536
L148.4304 144.2536
" />
<path d="M110.3304 144.2536
L96.3304 144.2536
" />
<path d="M105.8554 125.2036
L105.8554 139.2036
" />
<path d="M138.9054 125.2036
L124.9054 125.2036
" />
<path d="M148.4304 87.1036
L134.4304 87.1036
" />
<path d="M229.6804 106.1536
L229.6804 120.1536
" />
<path d="M129.3804 120.1536
L129.3804 106.1536
" />
<path d="M186.5304 144.2536
L172.5304 144.2536
" />
<path d="M281.7804 87.1036
L267.7804 87.1036
" />
<path d="M105.8554 139.2036
L119.8554 139.2036
" />
<path d="M96.3304 87.1036
L96.3304 101.1036
" />
<path d="M262.7304 177.3036
L262.7304 163.3036
" />
<path d="M110.3304 120.1536
L110.3304 106.1536
" />
<path d="M229.6804 101.1036
L243.6804 101.1036
" />
<path d="M167.4804 158.2536
L167.4804 144.2536
" />
<path d="M110.3304 101.1036
L110.3304 87.1036
" />
<path d="M172.2429 177.3036
L172.2429 163.3036
" />
<path d="M134.4304 87.1036
L134.4304 101.1036
" />
<path d="M129.3804 144.2536
L115.3804 144.2536
" />
<path d="M210.6304 106.1536
L210.6304 120.1536
" />
<path d="M134.4304 144.2536
L134.4304 158.2536
" />
<path d="M96.3304 120.1536
L110.3304 120.1536
" />
<path d="M286.8304 84.5786
L286.8304 179.8286
" />
<path d="M119.8554 125.2036
L105.8554 125.2036
" />
<path d="M96.3304 106.1536
L96.3304 120.1536
" />
<path d="M243.6804 101.1036
L243.6804 87.1036
" />
<path d="M115.3804 106.1536
L115.3804 120.1536
" />
<path d="M124.9054 139.2036
L138.9054 139.2036
" />
<path d="M96.3304 158.2536
L110.3304 158.2536
" />
<path d="M248.7304 87.1036
L248.7304 101.1036
" />
<path d="M471.4654 339.4336
L471.4654 353.4336
" />
<path d="M490.5154 372.4836
L504.5154 372.4836
" />
<path d="M485.4654 339.4336
L471.4654 339.4336
" />
<path d="M504.5154 339.4336
L490.5154 339.4336
" />
<path d="M461.9404 334.3836
L475.9404 334.3836
" />
<path d="M466.4154 282.2836
L452.4154 282.2836
" />
<path d="M466.4154 296.2836
L466.4154 282.2836
" />
<path d="M485.4654 296.2836
L485.4654 282.2836
" />
<path d="M514.0404 334.3836
L514.0404 320.3836
" />
<path d="M494.9904 320.3836
L480.9904 320.3836
" />
<path d="M452.4154 282.2836
L452.4154 296.2836
" />
<path d="M466.4154 315.3336
L466.4154 301.3336
" />
<path d="M604.8154 339.4336
L604.8154 353.4336
" />
<path d="M618.8154 301.3336
L604.8154 301.3336
" />
<path d="M538.1404 372.4836
L552.1404 372.4836
" />
<path d="M552.1404 358.4836
L538.1404 358.4836
" />
<path d="M585.7654 372.4836
L599.7654 372.4836
" />
<path d="M547.6654 296.2836
L561.6654 296.2836
" />
<path d="M528.6154 339.4336
L528.6154 353.4336
" />
<path d="M604.8154 301.3336
L604.8154 315.3336
" />
<path d="M466.4154 353.4336
L466.4154 339.4336
" />
<path d="M471.4654 315.3336
L485.4654 315.3336
" />
<path d="M552.1404 372.4836
L552.1404 358.4836
" />
<path d="M599.7654 358.4836
L585.7654 358.4836
" />
<path d="M561.9529 372.4836
L575.9529 372.4836
" />
<path d="M585.7654 358.4836
L585.7654 372.4836
" />
<path d="M604.8154 353.4336
L618.8154 353.4336
" />
<path d="M604.8154 315.3336
L618.8154 315.3336
" />
<path d="M575.9529 372.4836
L575.9529 358.4836
" />
<path d="M599.7654 372.4836
L599.7654 358.4836
" />
<path d="M452.4154 296.2836
L466.4154 296.2836
" />
<path d="M575.9529 358.4836
L561.9529 358.4836
" />
<path d="M452.3154 246.3211 A4.7624 4.7624 0.0 0 0 447.5529 251.0836" />
<path d="M542.6154 353.4336
L542.6154 339.4336
" />
<path d="M638.0529 379.6711 A4.7626 4.7626 0.0 0 0 642.8154 374.9086" />
<path d="M614.3404 320.3836
L614.3404 334.3836
" />
<path d="M642.8154 251.0836 A4.7625 4.7625 0.0 0 0 638.0529 246.3211" />
<path d="M447.5529 251.0836
L447.5529 374.9086
" />
<path d="M566.7154 282.2836
L566.7154 296.2836
" />
<path d="M528.6154 282.2836
L528.6154 296.2836
" />
<path d="M452.3154 246.3211
L638.0529 246.3211
" />
<path d="M604.8154 282.2836
L604.8154 296.2836
" />
<path d="M542.6154 282.2836
L528.6154 282.2836
" />
<path d="M618.8154 353.4336
L618.8154 339.4336
" />
<path d="M580.7154 296.2836
L580.7154 282.2836
" />
<path d="M623.8654 353.4336
L637.8654 353.4336
" />
<path d="M480.9904 334.3836
L494.9904 334.3836
" />
<path d="M528.6154 296.2836
L542.6154 296.2836
" />
<path d="M637.8654 339.4336
L623.8654 339.4336
" />
<path d="M485.4654 315.3336
L485.4654 301.3336
" />
<path d="M599.7654 315.3336
L599.7654 301.3336
" />
<path d="M542.6154 301.3336
L528.6154 301.3336
" />
<path d="M614.3404 334.3836
L628.3404 334.3836
" />
<path d="M623.8654 296.2836
L637.8654 296.2836
" />
<path d="M580.7154 282.2836
L566.7154 282.2836
" />
<path d="M628.3404 320.3836
L614.3404 320.3836
" />
<path d="M538.1404 334.3836
L552.1404 334.3836
" />
<path d="M542.6154 296.2836
L542.6154 282.2836
" />
<path d="M637.8654 353.4336
L637.8654 339.4336
" />
<path d="M618.8154 282.2836
L604.8154 282.2836
" />
<path d="M523.5654 296.2836
L523.5654 282.2836
" />
<path d="M504.5154 353.4336
L504.5154 339.4336
" />
<path d="M623.8654 339.4336
L623.8654 353.4336
" />
<path d="M452.4154 358.4836
L452.4154 372.4836
" />
<path d="M485.4654 372.4836
L485.4654 358.4836
" />
<path d="M485.4654 358.4836
L471.4654 358.4836
" />
<path d="M547.6654 301.3336
L547.6654 315.3336
" />
<path d="M561.6654 339.4336
L547.6654 339.4336
" />
<path d="M490.5154 301.3336
L490.5154 315.3336
" />
<path d="M571.1904 320.3836
L557.1904 320.3836
" />
<path d="M509.5654 296.2836
L523.5654 296.2836
" />
<path d="M504.5154 296.2836
L504.5154 282.2836
" />
<path d="M509.5654 282.2836
L509.5654 296.2836
" />
<path d="M447.5529 374.9086 A4.7625 4.7625 0.0 0 0 452.3154 379.6711" />
<path d="M580.7154 315.3336
L580.7154 301.3336
" />
<path d="M552.1404 334.3836
L552.1404 320.3836
" />
<path d="M528.6154 301.3336
L528.6154 315.3336
" />
<path d="M576.2404 320.3836
L576.2404 334.3836
" />
<path d="M557.1904 334.3836
L571.1904 334.3836
" />
<path d="M585.7654 315.3336
L599.7654 315.3336
" />
<path d="M576.2404 334.3836
L590.2404 334.3836
" />
<path d="M590.2404 320.3836
L576.2404 320.3836
" />
<path d="M471.4654 358.4836
L471.4654 372.4836
" />
<path d="M561.6654 282.2836
L547.6654 282.2836
" />
<path d="M547.6654 353.4336
L561.6654 353.4336
" />
<path d="M538.1404 320.3836
L538.1404 334.3836
" />
<path d="M547.6654 339.4336
L547.6654 353.4336
" />
<path d="M557.1904 320.3836
L557.1904 334.3836
" />
<path d="M466.4154 339.4336
L452.4154 339.4336
" />
<path d="M547.6654 315.3336
L561.6654 315.3336
" />
<path d="M566.7154 296.2836
L580.7154 296.2836
" />
<path d="M566.7154 353.4336
L580.7154 353.4336
" />
<path d="M523.5654 282.2836
L509.5654 282.2836
" />
<path d="M504.5154 315.3336
L504.5154 301.3336
" />
<path d="M452.4154 372.4836
L466.4154 372.4836
" />
<path d="M618.8154 296.2836
L618.8154 282.2836
" />
<path d="M566.7154 301.3336
L566.7154 315.3336
" />
<path d="M490.5154 315.3336
L504.5154 315.3336
" />
<path d="M566.7154 339.4336
L566.7154 353.4336
" />
<path d="M542.6154 339.4336
L528.6154 339.4336
" />
<path d="M514.0404 320.3836
L500.0404 320.3836
" />
<path d="M471.4654 372.4836
L485.4654 372.4836
" />
<path d="M528.6154 315.3336
L542.6154 315.3336
" />
<path d="M637.8654 301.3336
L623.8654 301.3336
" />
<path d="M490.5154 282.2836
L490.5154 296.2836
" />
<path d="M490.5154 296.2836
L504.5154 296.2836
" />
<path d="M580.7154 339.4336
L566.7154 339.4336
" />
<path d="M623.8654 301.3336
L623.8654 315.3336
" />
<path d="M628.3404 334.3836
L628.3404 320.3836
" />
<path d="M547.6654 282.2836
L547.6654 296.2836
" />
<path d="M542.6154 315.3336
L542.6154 301.3336
" />
<path d="M561.6654 296.2836
L561.6654 282.2836
" />
<path d="M504.5154 301.3336
L490.5154 301.3336
" />
<path d="M471.4654 296.2836
L485.4654 296.2836
" />
<path d="M585.7654 296.2836
L599.7654 296.2836
" />
<path d="M590.2404 334.3836
L590.2404 320.3836
" />
<path d="M566.7154 315.3336
L580.7154 315.3336
" />
<path d="M561.6654 301.3336
L547.6654 301.3336
" />
<path d="M523.5654 301.3336
L509.5654 301.3336
" />
<path d="M637.8654 358.4836
L623.8654 358.4836
" />
<path d="M475.9404 334.3836
L475.9404 320.3836
" />
<path d="M475.9404 320.3836
L461.9404 320.3836
" />
<path d="M580.7154 353.4336
L580.7154 339.4336
" />
<path d="M599.7654 296.2836
L599.7654 282.2836
" />
<path d="M585.7654 339.4336
L585.7654 353.4336
" />
<path d="M623.8654 358.4836
L623.8654 372.4836
" />
<path d="M599.7654 339.4336
L585.7654 339.4336
" />
<path d="M533.0904 320.3836
L519.0904 320.3836
" />
<path d="M509.5654 339.4336
L509.5654 353.4336
" />
<path d="M466.4154 372.4836
L466.4154 358.4836
" />
<path d="M509.5654 315.3336
L523.5654 315.3336
" />
<path d="M504.5154 282.2836
L490.5154 282.2836
" />
<path d="M523.5654 315.3336
L523.5654 301.3336
" />
<path d="M471.4654 282.2836
L471.4654 296.2836
" />
<path d="M514.3279 372.4836
L528.3279 372.4836
" />
<path d="M514.3279 358.4836
L514.3279 372.4836
" />
<path d="M595.2904 334.3836
L609.2904 334.3836
" />
<path d="M523.5654 339.4336
L509.5654 339.4336
" />
<path d="M623.8654 315.3336
L637.8654 315.3336
" />
<path d="M618.8154 372.4836
L618.8154 358.4836
" />
<path d="M580.7154 301.3336
L566.7154 301.3336
" />
<path d="M466.4154 301.3336
L452.4154 301.3336
" />
<path d="M490.5154 358.4836
L490.5154 372.4836
" />
<path d="M561.6654 353.4336
L561.6654 339.4336
" />
<path d="M623.8654 372.4836
L637.8654 372.4836
" />
<path d="M485.4654 353.4336
L485.4654 339.4336
" />
<path d="M604.8154 296.2836
L618.8154 296.2836
" />
<path d="M637.8654 282.2836
L623.8654 282.2836
" />
<path d="M609.2904 320.3836
L595.2904 320.3836
" />
<path d="M585.7654 301.3336
L585.7654 315.3336
" />
<path d="M500.0404 334.3836
L514.0404 334.3836
" />
<path d="M504.5154 358.4836
L490.5154 358.4836
" />
<path d="M528.6154 353.4336
L542.6154 353.4336
" />
<path d="M618.8154 315.3336
L618.8154 301.3336
" />
<path d="M637.8654 296.2836
L637.8654 282.2836
" />
<path d="M485.4654 301.3336
L471.4654 301.3336
" />
<path d="M609.2904 334.3836
L609.2904 320.3836
" />
<path d="M599.7654 353.4336
L599.7654 339.4336
" />
<path d="M500.0404 320.3836
L500.0404 334.3836
" />
<path d="M452.4154 339.4336
L452.4154 353.4336
" />
<path d="M452.4154 315.3336
L466.4154 315.3336
" />
<path d="M571.1904 334.3836
L571.1904 320.3836
" />
<path d="M519.0904 320.3836
L519.0904 334.3836
" />
<path d="M604.8154 372.4836
L618.8154 372.4836
" />
<path d="M519.0904 334.3836
L533.0904 334.3836
" />
<path d="M604.8154 358.4836
L604.8154 372.4836
" />
<path d="M466.4154 358.4836
L452.4154 358.4836
" />
<path d="M637.8654 372.4836
L637.8654 358.4836
" />
<path d="M461.9404 320.3836
L461.9404 334.3836
" />
<path d="M538.1404 358.4836
L538.1404 372.4836
" />
<path d="M623.8654 282.2836
L623.8654 296.2836
" />
<path d="M561.9529 358.4836
L561.9529 372.4836
" />
<path d="M528.3279 372.4836
L528.3279 358.4836
" />
<path d="M595.2904 320.3836
L595.2904 334.3836
" />
<path d="M618.8154 339.4336
L604.8154 339.4336
" />
<path d="M509.5654 353.4336
L523.5654 353.4336
" />
<path d="M585.7654 282.2836
L585.7654 296.2836
" />
<path d="M480.9904 320.3836
L480.9904 334.3836
" />
<path d="M637.8654 315.3336
L637.8654 301.3336
" />
<path d="M618.8154 358.4836
L604.8154 358.4836
" />
<path d="M471.4654 353.4336
L485.4654 353.4336
" />
<path d="M485.4654 282.2836
L471.4654 282.2836
" />
<path d="M452.4154 301.3336
L452.4154 315.3336
" />
<path d="M523.5654 353.4336
L523.5654 339.4336
" />
<path d="M490.5154 339.4336
L490.5154 353.4336
" />
<path d="M509.5654 301.3336
L509.5654 315.3336
" />
<path d="M561.6654 315.3336
L561.6654 301.3336
" />
<path d="M452.4154 353.4336
L466.4154 353.4336
" />
<path d="M494.9904 334.3836
L494.9904 320.3836
" />
<path d="M471.4654 301.3336
L471.4654 315.3336
" />
<path d="M533.0904 334.3836
L533.0904 320.3836
" />
<path d="M599.7654 282.2836
L585.7654 282.2836
" />
<path d="M528.3279 358.4836
L514.3279 358.4836
" />
<path d="M490.5154 353.4336
L504.5154 353.4336
" />
<path d="M585.7654 353.4336
L599.7654 353.4336
" />
<path d="M552.1404 320.3836
L538.1404 320.3836
" />
<path d="M504.5154 372.4836
L504.5154 358.4836
" />
<path d="M642.8154 374.9086
L642.8154 251.0836
" />
<path d="M599.7654 301.3336
L585.7654 301.3336
" />
<path d="M638.0529 379.6711
L452.3154 379.6711
" />
</g> 
</svg>
