  0
SECTION
  2
HEADER
  9
$ANGBASE
  50
0.0
  9
$ANGDIR
  70
1
  9
$MEASUREMENT
  70
1
  0
ENDSEC
  0
SECTION
  2
TABLES
  0
TABLE
  2
LTYPE
  70
4
  0
LTYPE
  5
40F
  2
CONTINUOUS
  70
0
  3
Solid line
  72
65
  73
0
  40
0.0
  0
LTYPE
  5
410
  2
DASHDOT
 70
0
  3
Dash Dot ____ _ ____ _
 72
65
 73
4
 40
2.0
 49
1.25
 49
-0.25
 49
0.25
 49
-0.25
  0
LTYPE
  5
411
  2
DASHED
 70
0
  3
Dashed __ __ __ __ __
 72
65
 73
2
 40
0.75
 49
0.5
 49
-0.25
  0
LTYPE
  5
43B
  2
DOTTED
 70
0
  3
Dotted .  .  .  .
 72
65
 73
2
 40
0.2
 49
0.0
 49
-0.2
  0
ENDTAB
  0
TABLE
  2
STYLE
  70
4
  0
STYLE
  2
KICAD
  70
0
  40
0
  41
1
  42
1
  50
0
  71
0
  3
isocp.shx
  0
STYLE
  2
KICADB
  70
0
  40
0
  41
1
  42
1
  50
0
  71
0
  3
isocp.shx
  0
STYLE
  2
KICADI
  70
0
  40
0
  41
1
  42
1
  50
15
  71
0
  3
isocp.shx
  0
STYLE
  2
KICADBI
  70
0
  40
0
  41
1
  42
1
  50
15
  71
0
  3
isocp.shx
  0
ENDTAB
  0
TABLE
  2
LAYER
  70
1
  0
LAYER
  2
BLACK
  70
0
  62
7
  6
CONTINUOUS
  0
ENDTAB
  0
ENDSEC
  0
SECTION
  2
ENTITIES
0
LINE
8
BLACK
6
CONTINUOUS
10
219.867874999999998
20
-163.3036249999999825
11
205.867874999999998
21
-163.3036249999999825
0
LINE
8
BLACK
6
CONTINUOUS
10
91.5678750000000008
20
-450.5286249999999768
11
91.5678750000000008
21
-326.7036249999999882
0
LINE
8
BLACK
6
CONTINUOUS
10
96.3303749999999894
20
-319.9411249999999995
11
91.5678750000000008
21
-319.9411249999999995
0
LINE
8
BLACK
6
CONTINUOUS
10
96.3303749999999894
20
-79.8161249999999995
11
282.067875000000015
21
-79.8161249999999995
0
LINE
8
BLACK
6
CONTINUOUS
10
106.1053749999999951
20
-321.9411249999999995
11
96.3303749999999894
21
-321.9411249999999995
0
LINE
8
BLACK
6
CONTINUOUS
10
243.680374999999998
20
-177.3036249999999825
11
243.680374999999998
21
-163.3036249999999825
0
LINE
8
BLACK
6
CONTINUOUS
10
260.1053749999999809
20
-321.9411249999999995
11
282.067875000000015
21
-321.9411249999999995
0
LINE
8
BLACK
6
CONTINUOUS
10
91.5678750000000008
20
-315.1786250000000109
11
91.5678750000000008
21
-319.9411249999999995
0
LINE
8
BLACK
6
CONTINUOUS
10
205.867874999999998
20
-163.3036249999999825
11
205.867874999999998
21
-177.3036249999999825
0
LINE
8
BLACK
6
CONTINUOUS
10
229.680374999999998
20
-177.3036249999999825
11
243.680374999999998
21
-177.3036249999999825
0
LINE
8
BLACK
6
CONTINUOUS
10
196.055374999999998
20
-177.3036249999999825
11
196.055374999999998
21
-163.3036249999999825
0
LINE
8
BLACK
6
CONTINUOUS
10
260.1053749999999809
20
-319.9411249999999995
11
282.067875000000015
21
-319.9411249999999995
0
LINE
8
BLACK
6
CONTINUOUS
10
243.680374999999998
20
-163.3036249999999825
11
229.680374999999998
21
-163.3036249999999825
0
LINE
8
BLACK
6
CONTINUOUS
10
260.1053749999999809
20
-184.5911250000000052
11
282.067875000000015
21
-184.5911250000000052
0
LINE
8
BLACK
6
CONTINUOUS
10
196.055374999999998
20
-163.3036249999999825
11
182.055374999999998
21
-163.3036249999999825
0
LINE
8
BLACK
6
CONTINUOUS
10
96.3303749999999894
20
-319.9411249999999995
11
106.1053749999999951
21
-319.9411249999999995
0
LINE
8
BLACK
6
CONTINUOUS
10
229.680374999999998
20
-163.3036249999999825
11
229.680374999999998
21
-177.3036249999999825
0
LINE
8
BLACK
6
CONTINUOUS
10
282.067875000000015
20
-455.2911249999999654
11
96.3303749999999894
21
-455.2911249999999654
0
LINE
8
BLACK
6
CONTINUOUS
10
260.1053749999999809
20
-186.5911250000000052
11
282.067875000000015
21
-186.5911250000000052
0
LINE
8
BLACK
6
CONTINUOUS
10
219.867874999999998
20
-177.3036249999999825
11
219.867874999999998
21
-163.3036249999999825
0
LINE
8
BLACK
6
CONTINUOUS
10
191.5803750000000036
20
-101.1036249999999939
11
205.5803750000000036
21
-101.1036249999999939
0
LINE
8
BLACK
6
CONTINUOUS
10
248.7303749999999809
20
-158.2536249999999995
11
262.7303749999999809
21
-158.2536249999999995
0
LINE
8
BLACK
6
CONTINUOUS
10
248.7303749999999809
20
-106.153624999999991
11
248.7303749999999809
21
-120.153624999999991
0
LINE
8
BLACK
6
CONTINUOUS
10
262.7303749999999809
20
-106.153624999999991
11
248.7303749999999809
21
-106.153624999999991
0
LINE
8
BLACK
6
CONTINUOUS
10
172.5303749999999923
20
-144.2536249999999995
11
172.5303749999999923
21
-158.2536249999999995
0
LINE
8
BLACK
6
CONTINUOUS
10
248.7303749999999809
20
-144.2536249999999995
11
248.7303749999999809
21
-158.2536249999999995
0
LINE
8
BLACK
6
CONTINUOUS
10
172.5303749999999923
20
-158.2536249999999995
11
186.5303749999999923
21
-158.2536249999999995
0
LINE
8
BLACK
6
CONTINUOUS
10
248.7303749999999809
20
-120.153624999999991
11
262.7303749999999809
21
-120.153624999999991
0
LINE
8
BLACK
6
CONTINUOUS
10
281.7803749999999923
20
-120.153624999999991
11
281.7803749999999923
21
-106.153624999999991
0
ARC
8
BLACK
10
282.0679000000000087
20
-326.7035999999999945
40
4.7624750000656171
50
-0.00030077
51
90.00030077
0
LINE
8
BLACK
6
CONTINUOUS
10
243.680374999999998
20
-144.2536249999999995
11
229.680374999999998
21
-144.2536249999999995
0
LINE
8
BLACK
6
CONTINUOUS
10
272.255375000000015
20
-139.2036249999999882
11
272.255375000000015
21
-125.2036249999999882
0
LINE
8
BLACK
6
CONTINUOUS
10
267.7803749999999923
20
-101.1036249999999939
11
281.7803749999999923
21
-101.1036249999999939
0
LINE
8
BLACK
6
CONTINUOUS
10
262.7303749999999809
20
-158.2536249999999995
11
262.7303749999999809
21
-144.2536249999999995
0
LINE
8
BLACK
6
CONTINUOUS
10
172.5303749999999923
20
-101.1036249999999939
11
186.5303749999999923
21
-101.1036249999999939
0
LINE
8
BLACK
6
CONTINUOUS
10
258.255375000000015
20
-125.2036249999999882
11
258.255375000000015
21
-139.2036249999999882
0
LINE
8
BLACK
6
CONTINUOUS
10
186.5303749999999923
20
-87.1036249999999939
11
172.5303749999999923
21
-87.1036249999999939
0
LINE
8
BLACK
6
CONTINUOUS
10
267.7803749999999923
20
-158.2536249999999995
11
281.7803749999999923
21
-158.2536249999999995
0
LINE
8
BLACK
6
CONTINUOUS
10
281.7803749999999923
20
-144.2536249999999995
11
267.7803749999999923
21
-144.2536249999999995
0
LINE
8
BLACK
6
CONTINUOUS
10
182.055374999999998
20
-139.2036249999999882
11
196.055374999999998
21
-139.2036249999999882
0
LINE
8
BLACK
6
CONTINUOUS
10
258.255375000000015
20
-139.2036249999999882
11
272.255375000000015
21
-139.2036249999999882
0
LINE
8
BLACK
6
CONTINUOUS
10
186.5303749999999923
20
-106.153624999999991
11
172.5303749999999923
21
-106.153624999999991
0
LINE
8
BLACK
6
CONTINUOUS
10
224.6303749999999866
20
-101.1036249999999939
11
224.6303749999999866
21
-87.1036249999999939
0
LINE
8
BLACK
6
CONTINUOUS
10
224.6303749999999866
20
-87.1036249999999939
11
210.6303749999999866
21
-87.1036249999999939
0
LINE
8
BLACK
6
CONTINUOUS
10
243.680374999999998
20
-120.153624999999991
11
243.680374999999998
21
-106.153624999999991
0
LINE
8
BLACK
6
CONTINUOUS
10
91.5678750000000008
20
-191.3536249999999939
11
91.5678750000000008
21
-315.1786250000000109
0
LINE
8
BLACK
6
CONTINUOUS
10
205.5803750000000036
20
-120.153624999999991
11
205.5803750000000036
21
-106.153624999999991
0
LINE
8
BLACK
6
CONTINUOUS
10
182.055374999999998
20
-125.2036249999999882
11
182.055374999999998
21
-139.2036249999999882
0
LINE
8
BLACK
6
CONTINUOUS
10
267.7803749999999923
20
-120.153624999999991
11
281.7803749999999923
21
-120.153624999999991
0
LINE
8
BLACK
6
CONTINUOUS
10
129.3803749999999866
20
-177.3036249999999825
11
129.3803749999999866
21
-163.3036249999999825
0
LINE
8
BLACK
6
CONTINUOUS
10
262.7303749999999809
20
-144.2536249999999995
11
248.7303749999999809
21
-144.2536249999999995
0
LINE
8
BLACK
6
CONTINUOUS
10
110.3303749999999894
20
-163.3036249999999825
11
96.3303749999999894
21
-163.3036249999999825
0
LINE
8
BLACK
6
CONTINUOUS
10
281.7803749999999923
20
-158.2536249999999995
11
281.7803749999999923
21
-144.2536249999999995
0
LINE
8
BLACK
6
CONTINUOUS
10
110.3303749999999894
20
-177.3036249999999825
11
110.3303749999999894
21
-163.3036249999999825
0
ARC
8
BLACK
10
282.0679000000000087
20
-84.5785999999999945
40
4.7624750000656171
50
-0.00030077
51
90.00030077
0
LINE
8
BLACK
6
CONTINUOUS
10
115.3803750000000008
20
-163.3036249999999825
11
115.3803750000000008
21
-177.3036249999999825
0
LINE
8
BLACK
6
CONTINUOUS
10
182.055374999999998
20
-163.3036249999999825
11
182.055374999999998
21
-177.3036249999999825
0
LINE
8
BLACK
6
CONTINUOUS
10
262.7303749999999809
20
-101.1036249999999939
11
262.7303749999999809
21
-87.1036249999999939
0
LINE
8
BLACK
6
CONTINUOUS
10
262.7303749999999809
20
-87.1036249999999939
11
248.7303749999999809
21
-87.1036249999999939
0
ARC
8
BLACK
10
282.0679000000000087
20
-315.1785999999999603
40
4.7624750000656171
50
-90.00030076
51
-0.00030077
0
LINE
8
BLACK
6
CONTINUOUS
10
267.7803749999999923
20
-144.2536249999999995
11
267.7803749999999923
21
-158.2536249999999995
0
LINE
8
BLACK
6
CONTINUOUS
10
253.2053749999999752
20
-125.2036249999999882
11
239.2053749999999752
21
-125.2036249999999882
0
LINE
8
BLACK
6
CONTINUOUS
10
286.8303750000000036
20
-315.1786250000000109
11
286.8303750000000036
21
-191.3536249999999939
0
LINE
8
BLACK
6
CONTINUOUS
10
182.055374999999998
20
-177.3036249999999825
11
196.055374999999998
21
-177.3036249999999825
0
LINE
8
BLACK
6
CONTINUOUS
10
115.3803750000000008
20
-177.3036249999999825
11
129.3803749999999866
21
-177.3036249999999825
0
ARC
8
BLACK
10
96.3303999999999974
20
-315.1785999999999603
40
4.7625250000656161
50
-179.99969924
51
-90.00030076
0
ARC
8
BLACK
10
282.0679000000000087
20
-450.5285999999999831
40
4.7624750000656171
50
-90.00030076
51
-0.00030077
0
ARC
8
BLACK
10
96.3303999999999974
20
-179.8285999999999945
40
4.7625250000656161
50
-179.99969924
51
-90.00030076
0
ARC
8
BLACK
10
96.3303999999999974
20
-450.5285999999999831
40
4.7625250000656161
50
-179.99969924
51
-90.00030076
0
ARC
8
BLACK
10
96.3303999999999974
20
-84.5785999999999945
40
4.7625250000656161
50
-269.99969923
51
-179.99969924
0
LINE
8
BLACK
6
CONTINUOUS
10
96.3303749999999894
20
-163.3036249999999825
11
96.3303749999999894
21
-177.3036249999999825
0
LINE
8
BLACK
6
CONTINUOUS
10
186.5303749999999923
20
-101.1036249999999939
11
186.5303749999999923
21
-87.1036249999999939
0
LINE
8
BLACK
6
CONTINUOUS
10
286.8303750000000036
20
-326.7036249999999882
11
286.8303750000000036
21
-450.5286249999999768
0
LINE
8
BLACK
6
CONTINUOUS
10
191.5803750000000036
20
-120.153624999999991
11
205.5803750000000036
21
-120.153624999999991
0
LINE
8
BLACK
6
CONTINUOUS
10
153.4803749999999809
20
-87.1036249999999939
11
153.4803749999999809
21
-101.1036249999999939
0
LINE
8
BLACK
6
CONTINUOUS
10
234.1553749999999923
20
-125.2036249999999882
11
220.1553749999999923
21
-125.2036249999999882
0
LINE
8
BLACK
6
CONTINUOUS
10
220.1553749999999923
20
-125.2036249999999882
11
220.1553749999999923
21
-139.2036249999999882
0
ARC
8
BLACK
10
210.105400000000003
20
-185.5910999999999831
40
1.0000250003124922
50
-269.99856757
51
-90.00143236
0
LINE
8
BLACK
6
CONTINUOUS
10
191.5803750000000036
20
-144.2536249999999995
11
191.5803750000000036
21
-158.2536249999999995
0
LINE
8
BLACK
6
CONTINUOUS
10
172.5303749999999923
20
-120.153624999999991
11
186.5303749999999923
21
-120.153624999999991
0
LINE
8
BLACK
6
CONTINUOUS
10
215.1053749999999809
20
-125.2036249999999882
11
201.1053749999999809
21
-125.2036249999999882
0
LINE
8
BLACK
6
CONTINUOUS
10
157.9553750000000036
20
-125.2036249999999882
11
143.9553750000000036
21
-125.2036249999999882
0
LINE
8
BLACK
6
CONTINUOUS
10
172.5303749999999923
20
-106.153624999999991
11
172.5303749999999923
21
-120.153624999999991
0
LINE
8
BLACK
6
CONTINUOUS
10
205.5803750000000036
20
-144.2536249999999995
11
191.5803750000000036
21
-144.2536249999999995
0
LINE
8
BLACK
6
CONTINUOUS
10
205.5803750000000036
20
-87.1036249999999939
11
191.5803750000000036
21
-87.1036249999999939
0
LINE
8
BLACK
6
CONTINUOUS
10
134.430374999999998
20
-106.153624999999991
11
134.430374999999998
21
-120.153624999999991
0
LINE
8
BLACK
6
CONTINUOUS
10
201.1053749999999809
20
-139.2036249999999882
11
215.1053749999999809
21
-139.2036249999999882
0
LINE
8
BLACK
6
CONTINUOUS
10
186.5303749999999923
20
-158.2536249999999995
11
186.5303749999999923
21
-144.2536249999999995
0
LINE
8
BLACK
6
CONTINUOUS
10
205.5803750000000036
20
-158.2536249999999995
11
205.5803750000000036
21
-144.2536249999999995
0
LINE
8
BLACK
6
CONTINUOUS
10
143.9553750000000036
20
-125.2036249999999882
11
143.9553750000000036
21
-139.2036249999999882
0
LINE
8
BLACK
6
CONTINUOUS
10
153.4803749999999809
20
-101.1036249999999939
11
167.4803749999999809
21
-101.1036249999999939
0
LINE
8
BLACK
6
CONTINUOUS
10
210.6303749999999866
20
-101.1036249999999939
11
224.6303749999999866
21
-101.1036249999999939
0
LINE
8
BLACK
6
CONTINUOUS
10
210.6303749999999866
20
-144.2536249999999995
11
210.6303749999999866
21
-158.2536249999999995
0
ARC
8
BLACK
10
110.1053999999999888
20
-185.5910999999999831
40
1.0000250003124922
50
-269.99856757
51
-90.00143236
0
LINE
8
BLACK
6
CONTINUOUS
10
215.1053749999999809
20
-139.2036249999999882
11
215.1053749999999809
21
-125.2036249999999882
0
LINE
8
BLACK
6
CONTINUOUS
10
167.4803749999999809
20
-101.1036249999999939
11
167.4803749999999809
21
-87.1036249999999939
0
LINE
8
BLACK
6
CONTINUOUS
10
201.1053749999999809
20
-125.2036249999999882
11
201.1053749999999809
21
-139.2036249999999882
0
LINE
8
BLACK
6
CONTINUOUS
10
272.255375000000015
20
-125.2036249999999882
11
258.255375000000015
21
-125.2036249999999882
0
LINE
8
BLACK
6
CONTINUOUS
10
224.6303749999999866
20
-158.2536249999999995
11
224.6303749999999866
21
-144.2536249999999995
0
LINE
8
BLACK
6
CONTINUOUS
10
148.430374999999998
20
-106.153624999999991
11
134.430374999999998
21
-106.153624999999991
0
LINE
8
BLACK
6
CONTINUOUS
10
191.5803750000000036
20
-106.153624999999991
11
191.5803750000000036
21
-120.153624999999991
0
LINE
8
BLACK
6
CONTINUOUS
10
167.4803749999999809
20
-87.1036249999999939
11
153.4803749999999809
21
-87.1036249999999939
0
ARC
8
BLACK
10
206.105400000000003
20
-185.5910999999999831
40
0.9999750003125079
50
-90.00143236
51
90.00143243
0
ARC
8
BLACK
10
260.1053999999999746
20
-185.5910999999999831
40
1.0000250003124922
50
-269.99856757
51
-90.00143236
0
LINE
8
BLACK
6
CONTINUOUS
10
220.1553749999999923
20
-139.2036249999999882
11
234.1553749999999923
21
-139.2036249999999882
0
LINE
8
BLACK
6
CONTINUOUS
10
134.430374999999998
20
-120.153624999999991
11
148.430374999999998
21
-120.153624999999991
0
LINE
8
BLACK
6
CONTINUOUS
10
224.6303749999999866
20
-106.153624999999991
11
210.6303749999999866
21
-106.153624999999991
0
LINE
8
BLACK
6
CONTINUOUS
10
210.6303749999999866
20
-158.2536249999999995
11
224.6303749999999866
21
-158.2536249999999995
0
LINE
8
BLACK
6
CONTINUOUS
10
224.6303749999999866
20
-120.153624999999991
11
224.6303749999999866
21
-106.153624999999991
0
LINE
8
BLACK
6
CONTINUOUS
10
191.5803750000000036
20
-158.2536249999999995
11
205.5803750000000036
21
-158.2536249999999995
0
LINE
8
BLACK
6
CONTINUOUS
10
267.7803749999999923
20
-106.153624999999991
11
267.7803749999999923
21
-120.153624999999991
0
LINE
8
BLACK
6
CONTINUOUS
10
186.5303749999999923
20
-120.153624999999991
11
186.5303749999999923
21
-106.153624999999991
0
LINE
8
BLACK
6
CONTINUOUS
10
110.1053749999999951
20
-184.5911250000000052
11
156.1053749999999809
21
-184.5911250000000052
0
LINE
8
BLACK
6
CONTINUOUS
10
224.6303749999999866
20
-144.2536249999999995
11
210.6303749999999866
21
-144.2536249999999995
0
LINE
8
BLACK
6
CONTINUOUS
10
148.430374999999998
20
-101.1036249999999939
11
148.430374999999998
21
-87.1036249999999939
0
LINE
8
BLACK
6
CONTINUOUS
10
196.055374999999998
20
-125.2036249999999882
11
182.055374999999998
21
-125.2036249999999882
0
LINE
8
BLACK
6
CONTINUOUS
10
234.1553749999999923
20
-139.2036249999999882
11
234.1553749999999923
21
-125.2036249999999882
0
LINE
8
BLACK
6
CONTINUOUS
10
205.5803750000000036
20
-101.1036249999999939
11
205.5803750000000036
21
-87.1036249999999939
0
LINE
8
BLACK
6
CONTINUOUS
10
205.5803750000000036
20
-106.153624999999991
11
191.5803750000000036
21
-106.153624999999991
0
LINE
8
BLACK
6
CONTINUOUS
10
210.6303749999999866
20
-120.153624999999991
11
224.6303749999999866
21
-120.153624999999991
0
ARC
8
BLACK
10
256.1053999999999746
20
-185.5910999999999831
40
0.9999750003125079
50
-90.00143236
51
90.00143243
0
LINE
8
BLACK
6
CONTINUOUS
10
160.1053749999999809
20
-184.5911250000000052
11
206.1053749999999809
21
-184.5911250000000052
0
ARC
8
BLACK
10
282.0679000000000087
20
-179.8285999999999945
40
4.7624750000656171
50
-90.00030076
51
-0.00030077
0
ARC
8
BLACK
10
260.1053999999999746
20
-320.9411000000000058
40
1.0000250003124922
50
-269.99856757
51
-90.00143236
0
ARC
8
BLACK
10
160.105400000000003
20
-320.9411000000000058
40
1.0000250003124922
50
-269.99856757
51
-90.00143236
0
ARC
8
BLACK
10
156.105400000000003
20
-320.9411000000000058
40
0.9999750003125079
50
-90.00143236
51
90.00143243
0
ARC
8
BLACK
10
206.105400000000003
20
-320.9411000000000058
40
0.9999750003125079
50
-90.00143236
51
90.00143243
0
LINE
8
BLACK
6
CONTINUOUS
10
229.680374999999998
20
-120.153624999999991
11
243.680374999999998
21
-120.153624999999991
0
LINE
8
BLACK
6
CONTINUOUS
10
160.1053749999999809
20
-319.9411249999999995
11
206.1053749999999809
21
-319.9411249999999995
0
LINE
8
BLACK
6
CONTINUOUS
10
210.1053749999999809
20
-321.9411249999999995
11
256.1053749999999809
21
-321.9411249999999995
0
LINE
8
BLACK
6
CONTINUOUS
10
91.5678750000000008
20
-179.8286249999999882
11
91.5678750000000008
21
-84.5786250000000024
0
ARC
8
BLACK
10
256.1053999999999746
20
-320.9411000000000058
40
0.9999750003125079
50
-90.00143236
51
90.00143243
0
ARC
8
BLACK
10
160.105400000000003
20
-185.5910999999999831
40
1.0000250003124922
50
-269.99856757
51
-90.00143236
0
ARC
8
BLACK
10
96.3303999999999974
20
-326.7035999999999945
40
4.7625250000656161
50
-269.99969923
51
-179.99969924
0
LINE
8
BLACK
6
CONTINUOUS
10
210.1053749999999809
20
-319.9411249999999995
11
256.1053749999999809
21
-319.9411249999999995
0
ARC
8
BLACK
10
106.1053999999999888
20
-320.9411000000000058
40
0.9999750003125079
50
-90.00143236
51
90.00143243
0
LINE
8
BLACK
6
CONTINUOUS
10
281.7803749999999923
20
-163.3036249999999825
11
267.7803749999999923
21
-163.3036249999999825
0
LINE
8
BLACK
6
CONTINUOUS
10
248.7303749999999809
20
-163.3036249999999825
11
248.7303749999999809
21
-177.3036249999999825
0
LINE
8
BLACK
6
CONTINUOUS
10
153.4803749999999809
20
-120.153624999999991
11
167.4803749999999809
21
-120.153624999999991
0
LINE
8
BLACK
6
CONTINUOUS
10
153.4803749999999809
20
-158.2536249999999995
11
167.4803749999999809
21
-158.2536249999999995
0
LINE
8
BLACK
6
CONTINUOUS
10
153.4803749999999809
20
-106.153624999999991
11
153.4803749999999809
21
-120.153624999999991
0
LINE
8
BLACK
6
CONTINUOUS
10
96.3303749999999894
20
-186.5911250000000052
11
106.1053749999999951
21
-186.5911250000000052
0
LINE
8
BLACK
6
CONTINUOUS
10
177.0053749999999866
20
-139.2036249999999882
11
177.0053749999999866
21
-125.2036249999999882
0
LINE
8
BLACK
6
CONTINUOUS
10
138.9053749999999923
20
-139.2036249999999882
11
138.9053749999999923
21
-125.2036249999999882
0
LINE
8
BLACK
6
CONTINUOUS
10
129.3803749999999866
20
-158.2536249999999995
11
129.3803749999999866
21
-144.2536249999999995
0
LINE
8
BLACK
6
CONTINUOUS
10
267.7803749999999923
20
-87.1036249999999939
11
267.7803749999999923
21
-101.1036249999999939
0
LINE
8
BLACK
6
CONTINUOUS
10
243.680374999999998
20
-158.2536249999999995
11
243.680374999999998
21
-144.2536249999999995
0
LINE
8
BLACK
6
CONTINUOUS
10
167.4803749999999809
20
-144.2536249999999995
11
153.4803749999999809
21
-144.2536249999999995
0
LINE
8
BLACK
6
CONTINUOUS
10
167.4803749999999809
20
-106.153624999999991
11
153.4803749999999809
21
-106.153624999999991
0
LINE
8
BLACK
6
CONTINUOUS
10
243.680374999999998
20
-106.153624999999991
11
229.680374999999998
21
-106.153624999999991
0
LINE
8
BLACK
6
CONTINUOUS
10
243.680374999999998
20
-87.1036249999999939
11
229.680374999999998
21
-87.1036249999999939
0
LINE
8
BLACK
6
CONTINUOUS
10
229.680374999999998
20
-144.2536249999999995
11
229.680374999999998
21
-158.2536249999999995
0
LINE
8
BLACK
6
CONTINUOUS
10
210.1053749999999809
20
-186.5911250000000052
11
256.1053749999999809
21
-186.5911250000000052
0
LINE
8
BLACK
6
CONTINUOUS
10
148.430374999999998
20
-120.153624999999991
11
148.430374999999998
21
-106.153624999999991
0
ARC
8
BLACK
10
156.105400000000003
20
-185.5910999999999831
40
0.9999750003125079
50
-90.00143236
51
90.00143243
0
LINE
8
BLACK
6
CONTINUOUS
10
134.430374999999998
20
-101.1036249999999939
11
148.430374999999998
21
-101.1036249999999939
0
LINE
8
BLACK
6
CONTINUOUS
10
167.4803749999999809
20
-120.153624999999991
11
167.4803749999999809
21
-106.153624999999991
0
LINE
8
BLACK
6
CONTINUOUS
10
110.1053749999999951
20
-321.9411249999999995
11
156.1053749999999809
21
-321.9411249999999995
0
LINE
8
BLACK
6
CONTINUOUS
10
110.1053749999999951
20
-319.9411249999999995
11
156.1053749999999809
21
-319.9411249999999995
0
LINE
8
BLACK
6
CONTINUOUS
10
267.7803749999999923
20
-163.3036249999999825
11
267.7803749999999923
21
-177.3036249999999825
0
LINE
8
BLACK
6
CONTINUOUS
10
248.7303749999999809
20
-177.3036249999999825
11
262.7303749999999809
21
-177.3036249999999825
0
LINE
8
BLACK
6
CONTINUOUS
10
262.7303749999999809
20
-163.3036249999999825
11
248.7303749999999809
21
-163.3036249999999825
0
LINE
8
BLACK
6
CONTINUOUS
10
253.2053749999999752
20
-139.2036249999999882
11
253.2053749999999752
21
-125.2036249999999882
0
LINE
8
BLACK
6
CONTINUOUS
10
153.4803749999999809
20
-144.2536249999999995
11
153.4803749999999809
21
-158.2536249999999995
0
ARC
8
BLACK
10
282.0679000000000087
20
-191.3536000000000001
40
4.7624750000656171
50
-0.00030077
51
90.00030077
0
LINE
8
BLACK
6
CONTINUOUS
10
163.0053749999999866
20
-125.2036249999999882
11
163.0053749999999866
21
-139.2036249999999882
0
LINE
8
BLACK
6
CONTINUOUS
10
134.430374999999998
20
-158.2536249999999995
11
148.430374999999998
21
-158.2536249999999995
0
LINE
8
BLACK
6
CONTINUOUS
10
160.1053749999999809
20
-321.9411249999999995
11
206.1053749999999809
21
-321.9411249999999995
0
ARC
8
BLACK
10
210.105400000000003
20
-320.9411000000000058
40
1.0000250003124922
50
-269.99856757
51
-90.00143236
0
LINE
8
BLACK
6
CONTINUOUS
10
110.1053749999999951
20
-186.5911250000000052
11
156.1053749999999809
21
-186.5911250000000052
0
LINE
8
BLACK
6
CONTINUOUS
10
163.0053749999999866
20
-139.2036249999999882
11
177.0053749999999866
21
-139.2036249999999882
0
LINE
8
BLACK
6
CONTINUOUS
10
191.5803750000000036
20
-87.1036249999999939
11
191.5803750000000036
21
-101.1036249999999939
0
LINE
8
BLACK
6
CONTINUOUS
10
229.680374999999998
20
-158.2536249999999995
11
243.680374999999998
21
-158.2536249999999995
0
LINE
8
BLACK
6
CONTINUOUS
10
281.7803749999999923
20
-101.1036249999999939
11
281.7803749999999923
21
-87.1036249999999939
0
LINE
8
BLACK
6
CONTINUOUS
10
229.680374999999998
20
-87.1036249999999939
11
229.680374999999998
21
-101.1036249999999939
0
LINE
8
BLACK
6
CONTINUOUS
10
129.3803749999999866
20
-163.3036249999999825
11
115.3803750000000008
21
-163.3036249999999825
0
LINE
8
BLACK
6
CONTINUOUS
10
196.055374999999998
20
-139.2036249999999882
11
196.055374999999998
21
-125.2036249999999882
0
LINE
8
BLACK
6
CONTINUOUS
10
210.1053749999999809
20
-184.5911250000000052
11
256.1053749999999809
21
-184.5911250000000052
0
LINE
8
BLACK
6
CONTINUOUS
10
281.7803749999999923
20
-106.153624999999991
11
267.7803749999999923
21
-106.153624999999991
0
ARC
8
BLACK
10
110.1053999999999888
20
-320.9411000000000058
40
1.0000250003124922
50
-269.99856757
51
-90.00143236
0
LINE
8
BLACK
6
CONTINUOUS
10
205.867874999999998
20
-177.3036249999999825
11
219.867874999999998
21
-177.3036249999999825
0
ARC
8
BLACK
10
106.1053999999999888
20
-185.5910999999999831
40
0.9999750003125079
50
-90.00143236
51
90.00143243
0
LINE
8
BLACK
6
CONTINUOUS
10
160.1053749999999809
20
-186.5911250000000052
11
206.1053749999999809
21
-186.5911250000000052
0
LINE
8
BLACK
6
CONTINUOUS
10
239.2053749999999752
20
-125.2036249999999882
11
239.2053749999999752
21
-139.2036249999999882
0
LINE
8
BLACK
6
CONTINUOUS
10
262.7303749999999809
20
-120.153624999999991
11
262.7303749999999809
21
-106.153624999999991
0
LINE
8
BLACK
6
CONTINUOUS
10
248.7303749999999809
20
-101.1036249999999939
11
262.7303749999999809
21
-101.1036249999999939
0
LINE
8
BLACK
6
CONTINUOUS
10
239.2053749999999752
20
-139.2036249999999882
11
253.2053749999999752
21
-139.2036249999999882
0
LINE
8
BLACK
6
CONTINUOUS
10
177.0053749999999866
20
-125.2036249999999882
11
163.0053749999999866
21
-125.2036249999999882
0
LINE
8
BLACK
6
CONTINUOUS
10
281.7803749999999923
20
-177.3036249999999825
11
281.7803749999999923
21
-163.3036249999999825
0
LINE
8
BLACK
6
CONTINUOUS
10
124.9053749999999923
20
-125.2036249999999882
11
124.9053749999999923
21
-139.2036249999999882
0
LINE
8
BLACK
6
CONTINUOUS
10
129.3803749999999866
20
-106.153624999999991
11
115.3803750000000008
21
-106.153624999999991
0
LINE
8
BLACK
6
CONTINUOUS
10
110.3303749999999894
20
-106.153624999999991
11
96.3303749999999894
21
-106.153624999999991
0
LINE
8
BLACK
6
CONTINUOUS
10
134.430374999999998
20
-163.3036249999999825
11
134.430374999999998
21
-177.3036249999999825
0
LINE
8
BLACK
6
CONTINUOUS
10
119.8553749999999951
20
-139.2036249999999882
11
119.8553749999999951
21
-125.2036249999999882
0
LINE
8
BLACK
6
CONTINUOUS
10
96.3303749999999894
20
-144.2536249999999995
11
96.3303749999999894
21
-158.2536249999999995
0
ARC
8
BLACK
10
96.3303999999999974
20
-191.3536000000000001
40
4.7625250000656161
50
-269.99969923
51
-179.99969924
0
LINE
8
BLACK
6
CONTINUOUS
10
110.3303749999999894
20
-158.2536249999999995
11
110.3303749999999894
21
-144.2536249999999995
0
LINE
8
BLACK
6
CONTINUOUS
10
267.7803749999999923
20
-177.3036249999999825
11
281.7803749999999923
21
-177.3036249999999825
0
LINE
8
BLACK
6
CONTINUOUS
10
158.242874999999998
20
-163.3036249999999825
11
158.242874999999998
21
-177.3036249999999825
0
LINE
8
BLACK
6
CONTINUOUS
10
172.242874999999998
20
-163.3036249999999825
11
158.242874999999998
21
-163.3036249999999825
0
LINE
8
BLACK
6
CONTINUOUS
10
158.242874999999998
20
-177.3036249999999825
11
172.242874999999998
21
-177.3036249999999825
0
LINE
8
BLACK
6
CONTINUOUS
10
115.3803750000000008
20
-120.153624999999991
11
129.3803749999999866
21
-120.153624999999991
0
LINE
8
BLACK
6
CONTINUOUS
10
148.430374999999998
20
-163.3036249999999825
11
134.430374999999998
21
-163.3036249999999825
0
LINE
8
BLACK
6
CONTINUOUS
10
148.430374999999998
20
-177.3036249999999825
11
148.430374999999998
21
-163.3036249999999825
0
LINE
8
BLACK
6
CONTINUOUS
10
96.3303749999999894
20
-177.3036249999999825
11
110.3303749999999894
21
-177.3036249999999825
0
LINE
8
BLACK
6
CONTINUOUS
10
143.9553750000000036
20
-139.2036249999999882
11
157.9553750000000036
21
-139.2036249999999882
0
LINE
8
BLACK
6
CONTINUOUS
10
115.3803750000000008
20
-158.2536249999999995
11
129.3803749999999866
21
-158.2536249999999995
0
LINE
8
BLACK
6
CONTINUOUS
10
148.430374999999998
20
-144.2536249999999995
11
134.430374999999998
21
-144.2536249999999995
0
LINE
8
BLACK
6
CONTINUOUS
10
157.9553750000000036
20
-139.2036249999999882
11
157.9553750000000036
21
-125.2036249999999882
0
LINE
8
BLACK
6
CONTINUOUS
10
172.5303749999999923
20
-87.1036249999999939
11
172.5303749999999923
21
-101.1036249999999939
0
LINE
8
BLACK
6
CONTINUOUS
10
210.6303749999999866
20
-87.1036249999999939
11
210.6303749999999866
21
-101.1036249999999939
0
LINE
8
BLACK
6
CONTINUOUS
10
115.3803750000000008
20
-101.1036249999999939
11
129.3803749999999866
21
-101.1036249999999939
0
LINE
8
BLACK
6
CONTINUOUS
10
110.3303749999999894
20
-87.1036249999999939
11
96.3303749999999894
21
-87.1036249999999939
0
LINE
8
BLACK
6
CONTINUOUS
10
134.430374999999998
20
-177.3036249999999825
11
148.430374999999998
21
-177.3036249999999825
0
LINE
8
BLACK
6
CONTINUOUS
10
129.3803749999999866
20
-87.1036249999999939
11
115.3803750000000008
21
-87.1036249999999939
0
LINE
8
BLACK
6
CONTINUOUS
10
115.3803750000000008
20
-87.1036249999999939
11
115.3803750000000008
21
-101.1036249999999939
0
LINE
8
BLACK
6
CONTINUOUS
10
96.3303749999999894
20
-101.1036249999999939
11
110.3303749999999894
21
-101.1036249999999939
0
LINE
8
BLACK
6
CONTINUOUS
10
96.3303749999999894
20
-184.5911250000000052
11
106.1053749999999951
21
-184.5911250000000052
0
LINE
8
BLACK
6
CONTINUOUS
10
129.3803749999999866
20
-101.1036249999999939
11
129.3803749999999866
21
-87.1036249999999939
0
LINE
8
BLACK
6
CONTINUOUS
10
115.3803750000000008
20
-144.2536249999999995
11
115.3803750000000008
21
-158.2536249999999995
0
LINE
8
BLACK
6
CONTINUOUS
10
148.430374999999998
20
-158.2536249999999995
11
148.430374999999998
21
-144.2536249999999995
0
LINE
8
BLACK
6
CONTINUOUS
10
110.3303749999999894
20
-144.2536249999999995
11
96.3303749999999894
21
-144.2536249999999995
0
LINE
8
BLACK
6
CONTINUOUS
10
105.8553749999999951
20
-125.2036249999999882
11
105.8553749999999951
21
-139.2036249999999882
0
LINE
8
BLACK
6
CONTINUOUS
10
138.9053749999999923
20
-125.2036249999999882
11
124.9053749999999923
21
-125.2036249999999882
0
LINE
8
BLACK
6
CONTINUOUS
10
148.430374999999998
20
-87.1036249999999939
11
134.430374999999998
21
-87.1036249999999939
0
LINE
8
BLACK
6
CONTINUOUS
10
229.680374999999998
20
-106.153624999999991
11
229.680374999999998
21
-120.153624999999991
0
LINE
8
BLACK
6
CONTINUOUS
10
129.3803749999999866
20
-120.153624999999991
11
129.3803749999999866
21
-106.153624999999991
0
LINE
8
BLACK
6
CONTINUOUS
10
186.5303749999999923
20
-144.2536249999999995
11
172.5303749999999923
21
-144.2536249999999995
0
LINE
8
BLACK
6
CONTINUOUS
10
281.7803749999999923
20
-87.1036249999999939
11
267.7803749999999923
21
-87.1036249999999939
0
LINE
8
BLACK
6
CONTINUOUS
10
105.8553749999999951
20
-139.2036249999999882
11
119.8553749999999951
21
-139.2036249999999882
0
LINE
8
BLACK
6
CONTINUOUS
10
96.3303749999999894
20
-87.1036249999999939
11
96.3303749999999894
21
-101.1036249999999939
0
LINE
8
BLACK
6
CONTINUOUS
10
262.7303749999999809
20
-177.3036249999999825
11
262.7303749999999809
21
-163.3036249999999825
0
LINE
8
BLACK
6
CONTINUOUS
10
110.3303749999999894
20
-120.153624999999991
11
110.3303749999999894
21
-106.153624999999991
0
LINE
8
BLACK
6
CONTINUOUS
10
229.680374999999998
20
-101.1036249999999939
11
243.680374999999998
21
-101.1036249999999939
0
LINE
8
BLACK
6
CONTINUOUS
10
167.4803749999999809
20
-158.2536249999999995
11
167.4803749999999809
21
-144.2536249999999995
0
LINE
8
BLACK
6
CONTINUOUS
10
110.3303749999999894
20
-101.1036249999999939
11
110.3303749999999894
21
-87.1036249999999939
0
LINE
8
BLACK
6
CONTINUOUS
10
172.242874999999998
20
-177.3036249999999825
11
172.242874999999998
21
-163.3036249999999825
0
LINE
8
BLACK
6
CONTINUOUS
10
134.430374999999998
20
-87.1036249999999939
11
134.430374999999998
21
-101.1036249999999939
0
LINE
8
BLACK
6
CONTINUOUS
10
129.3803749999999866
20
-144.2536249999999995
11
115.3803750000000008
21
-144.2536249999999995
0
LINE
8
BLACK
6
CONTINUOUS
10
210.6303749999999866
20
-106.153624999999991
11
210.6303749999999866
21
-120.153624999999991
0
LINE
8
BLACK
6
CONTINUOUS
10
134.430374999999998
20
-144.2536249999999995
11
134.430374999999998
21
-158.2536249999999995
0
LINE
8
BLACK
6
CONTINUOUS
10
96.3303749999999894
20
-120.153624999999991
11
110.3303749999999894
21
-120.153624999999991
0
LINE
8
BLACK
6
CONTINUOUS
10
286.8303750000000036
20
-84.5786250000000024
11
286.8303750000000036
21
-179.8286249999999882
0
LINE
8
BLACK
6
CONTINUOUS
10
119.8553749999999951
20
-125.2036249999999882
11
105.8553749999999951
21
-125.2036249999999882
0
LINE
8
BLACK
6
CONTINUOUS
10
96.3303749999999894
20
-106.153624999999991
11
96.3303749999999894
21
-120.153624999999991
0
LINE
8
BLACK
6
CONTINUOUS
10
243.680374999999998
20
-101.1036249999999939
11
243.680374999999998
21
-87.1036249999999939
0
LINE
8
BLACK
6
CONTINUOUS
10
115.3803750000000008
20
-106.153624999999991
11
115.3803750000000008
21
-120.153624999999991
0
LINE
8
BLACK
6
CONTINUOUS
10
124.9053749999999923
20
-139.2036249999999882
11
138.9053749999999923
21
-139.2036249999999882
0
LINE
8
BLACK
6
CONTINUOUS
10
96.3303749999999894
20
-158.2536249999999995
11
110.3303749999999894
21
-158.2536249999999995
0
LINE
8
BLACK
6
CONTINUOUS
10
248.7303749999999809
20
-87.1036249999999939
11
248.7303749999999809
21
-101.1036249999999939
0
LINE
8
BLACK
6
CONTINUOUS
10
471.4653749999999945
20
-339.4336250000000064
11
471.4653749999999945
21
-353.4336250000000064
0
LINE
8
BLACK
6
CONTINUOUS
10
490.5153750000000059
20
-372.4836249999999609
11
504.5153749999999491
21
-372.4836249999999609
0
LINE
8
BLACK
6
CONTINUOUS
10
485.4653749999999945
20
-339.4336250000000064
11
471.4653749999999945
21
-339.4336250000000064
0
LINE
8
BLACK
6
CONTINUOUS
10
504.5153749999999491
20
-339.4336250000000064
11
490.5153750000000059
21
-339.4336250000000064
0
LINE
8
BLACK
6
CONTINUOUS
10
461.9403749999999604
20
-334.383624999999995
11
475.9403749999999604
21
-334.383624999999995
0
LINE
8
BLACK
6
CONTINUOUS
10
466.4153749999999832
20
-282.2836249999999723
11
452.4153749999999832
21
-282.2836249999999723
0
LINE
8
BLACK
6
CONTINUOUS
10
466.4153749999999832
20
-296.2836249999999723
11
466.4153749999999832
21
-282.2836249999999723
0
LINE
8
BLACK
6
CONTINUOUS
10
485.4653749999999945
20
-296.2836249999999723
11
485.4653749999999945
21
-282.2836249999999723
0
LINE
8
BLACK
6
CONTINUOUS
10
514.0403749999999263
20
-334.383624999999995
11
514.0403749999999263
21
-320.383624999999995
0
LINE
8
BLACK
6
CONTINUOUS
10
494.9903749999999718
20
-320.383624999999995
11
480.9903749999999718
21
-320.383624999999995
0
LINE
8
BLACK
6
CONTINUOUS
10
452.4153749999999832
20
-282.2836249999999723
11
452.4153749999999832
21
-296.2836249999999723
0
LINE
8
BLACK
6
CONTINUOUS
10
466.4153749999999832
20
-315.3336249999999836
11
466.4153749999999832
21
-301.3336249999999836
0
LINE
8
BLACK
6
CONTINUOUS
10
604.8153750000000173
20
-339.4336250000000064
11
604.8153750000000173
21
-353.4336250000000064
0
LINE
8
BLACK
6
CONTINUOUS
10
618.8153750000000173
20
-301.3336249999999836
11
604.8153750000000173
21
-301.3336249999999836
0
LINE
8
BLACK
6
CONTINUOUS
10
538.1403749999999491
20
-372.4836249999999609
11
552.1403749999999491
21
-372.4836249999999609
0
LINE
8
BLACK
6
CONTINUOUS
10
552.1403749999999491
20
-358.4836249999999609
11
538.1403749999999491
21
-358.4836249999999609
0
LINE
8
BLACK
6
CONTINUOUS
10
585.7653749999999491
20
-372.4836249999999609
11
599.7653749999999491
21
-372.4836249999999609
0
LINE
8
BLACK
6
CONTINUOUS
10
547.6653749999999263
20
-296.2836249999999723
11
561.6653749999999263
21
-296.2836249999999723
0
LINE
8
BLACK
6
CONTINUOUS
10
528.6153749999999718
20
-339.4336250000000064
11
528.6153749999999718
21
-353.4336250000000064
0
LINE
8
BLACK
6
CONTINUOUS
10
604.8153750000000173
20
-301.3336249999999836
11
604.8153750000000173
21
-315.3336249999999836
0
LINE
8
BLACK
6
CONTINUOUS
10
466.4153749999999832
20
-353.4336250000000064
11
466.4153749999999832
21
-339.4336250000000064
0
LINE
8
BLACK
6
CONTINUOUS
10
471.4653749999999945
20
-315.3336249999999836
11
485.4653749999999945
21
-315.3336249999999836
0
LINE
8
BLACK
6
CONTINUOUS
10
552.1403749999999491
20
-372.4836249999999609
11
552.1403749999999491
21
-358.4836249999999609
0
LINE
8
BLACK
6
CONTINUOUS
10
599.7653749999999491
20
-358.4836249999999609
11
585.7653749999999491
21
-358.4836249999999609
0
LINE
8
BLACK
6
CONTINUOUS
10
561.9528749999999491
20
-372.4836249999999609
11
575.9528749999999491
21
-372.4836249999999609
0
LINE
8
BLACK
6
CONTINUOUS
10
585.7653749999999491
20
-358.4836249999999609
11
585.7653749999999491
21
-372.4836249999999609
0
LINE
8
BLACK
6
CONTINUOUS
10
604.8153750000000173
20
-353.4336250000000064
11
618.8153750000000173
21
-353.4336250000000064
0
LINE
8
BLACK
6
CONTINUOUS
10
604.8153750000000173
20
-315.3336249999999836
11
618.8153750000000173
21
-315.3336249999999836
0
LINE
8
BLACK
6
CONTINUOUS
10
575.9528749999999491
20
-372.4836249999999609
11
575.9528749999999491
21
-358.4836249999999609
0
LINE
8
BLACK
6
CONTINUOUS
10
599.7653749999999491
20
-372.4836249999999609
11
599.7653749999999491
21
-358.4836249999999609
0
LINE
8
BLACK
6
CONTINUOUS
10
452.4153749999999832
20
-296.2836249999999723
11
466.4153749999999832
21
-296.2836249999999723
0
LINE
8
BLACK
6
CONTINUOUS
10
575.9528749999999491
20
-358.4836249999999609
11
561.9528749999999491
21
-358.4836249999999609
0
ARC
8
BLACK
10
452.3153149999999982
20
-251.083564999999993
40
4.7624400003779579
50
-270.00072185
51
-179.99927815
0
LINE
8
BLACK
6
CONTINUOUS
10
542.6153749999999718
20
-353.4336250000000064
11
542.6153749999999718
21
-339.4336250000000064
0
ARC
8
BLACK
10
638.0528150000000096
20
-374.9085650000000101
40
4.762560000377948
50
-89.99927817
51
-0.00072183
0
LINE
8
BLACK
6
CONTINUOUS
10
614.3403749999999945
20
-320.383624999999995
11
614.3403749999999945
21
-334.383624999999995
0
ARC
8
BLACK
10
638.0528749999999718
20
-251.0836249999999836
40
4.7625000000000002
50
0.00000000
51
90.00000000
0
LINE
8
BLACK
6
CONTINUOUS
10
447.5528749999999718
20
-251.0836249999999836
11
447.5528749999999718
21
-374.9086249999999723
0
LINE
8
BLACK
6
CONTINUOUS
10
566.7153749999999945
20
-282.2836249999999723
11
566.7153749999999945
21
-296.2836249999999723
0
LINE
8
BLACK
6
CONTINUOUS
10
528.6153749999999718
20
-282.2836249999999723
11
528.6153749999999718
21
-296.2836249999999723
0
LINE
8
BLACK
6
CONTINUOUS
10
452.3153749999999604
20
-246.321124999999995
11
638.0528749999999718
21
-246.321124999999995
0
LINE
8
BLACK
6
CONTINUOUS
10
604.8153750000000173
20
-282.2836249999999723
11
604.8153750000000173
21
-296.2836249999999723
0
LINE
8
BLACK
6
CONTINUOUS
10
542.6153749999999718
20
-282.2836249999999723
11
528.6153749999999718
21
-282.2836249999999723
0
LINE
8
BLACK
6
CONTINUOUS
10
618.8153750000000173
20
-353.4336250000000064
11
618.8153750000000173
21
-339.4336250000000064
0
LINE
8
BLACK
6
CONTINUOUS
10
580.7153749999999945
20
-296.2836249999999723
11
580.7153749999999945
21
-282.2836249999999723
0
LINE
8
BLACK
6
CONTINUOUS
10
623.8653749999999718
20
-353.4336250000000064
11
637.8653749999999718
21
-353.4336250000000064
0
LINE
8
BLACK
6
CONTINUOUS
10
480.9903749999999718
20
-334.383624999999995
11
494.9903749999999718
21
-334.383624999999995
0
LINE
8
BLACK
6
CONTINUOUS
10
528.6153749999999718
20
-296.2836249999999723
11
542.6153749999999718
21
-296.2836249999999723
0
LINE
8
BLACK
6
CONTINUOUS
10
637.8653749999999718
20
-339.4336250000000064
11
623.8653749999999718
21
-339.4336250000000064
0
LINE
8
BLACK
6
CONTINUOUS
10
485.4653749999999945
20
-315.3336249999999836
11
485.4653749999999945
21
-301.3336249999999836
0
LINE
8
BLACK
6
CONTINUOUS
10
599.7653749999999491
20
-315.3336249999999836
11
599.7653749999999491
21
-301.3336249999999836
0
LINE
8
BLACK
6
CONTINUOUS
10
542.6153749999999718
20
-301.3336249999999836
11
528.6153749999999718
21
-301.3336249999999836
0
LINE
8
BLACK
6
CONTINUOUS
10
614.3403749999999945
20
-334.383624999999995
11
628.3403749999999945
21
-334.383624999999995
0
LINE
8
BLACK
6
CONTINUOUS
10
623.8653749999999718
20
-296.2836249999999723
11
637.8653749999999718
21
-296.2836249999999723
0
LINE
8
BLACK
6
CONTINUOUS
10
580.7153749999999945
20
-282.2836249999999723
11
566.7153749999999945
21
-282.2836249999999723
0
LINE
8
BLACK
6
CONTINUOUS
10
628.3403749999999945
20
-320.383624999999995
11
614.3403749999999945
21
-320.383624999999995
0
LINE
8
BLACK
6
CONTINUOUS
10
538.1403749999999491
20
-334.383624999999995
11
552.1403749999999491
21
-334.383624999999995
0
LINE
8
BLACK
6
CONTINUOUS
10
542.6153749999999718
20
-296.2836249999999723
11
542.6153749999999718
21
-282.2836249999999723
0
LINE
8
BLACK
6
CONTINUOUS
10
637.8653749999999718
20
-353.4336250000000064
11
637.8653749999999718
21
-339.4336250000000064
0
LINE
8
BLACK
6
CONTINUOUS
10
618.8153750000000173
20
-282.2836249999999723
11
604.8153750000000173
21
-282.2836249999999723
0
LINE
8
BLACK
6
CONTINUOUS
10
523.5653750000000173
20
-296.2836249999999723
11
523.5653750000000173
21
-282.2836249999999723
0
LINE
8
BLACK
6
CONTINUOUS
10
504.5153749999999491
20
-353.4336250000000064
11
504.5153749999999491
21
-339.4336250000000064
0
LINE
8
BLACK
6
CONTINUOUS
10
623.8653749999999718
20
-339.4336250000000064
11
623.8653749999999718
21
-353.4336250000000064
0
LINE
8
BLACK
6
CONTINUOUS
10
452.4153749999999832
20
-358.4836249999999609
11
452.4153749999999832
21
-372.4836249999999609
0
LINE
8
BLACK
6
CONTINUOUS
10
485.4653749999999945
20
-372.4836249999999609
11
485.4653749999999945
21
-358.4836249999999609
0
LINE
8
BLACK
6
CONTINUOUS
10
485.4653749999999945
20
-358.4836249999999609
11
471.4653749999999945
21
-358.4836249999999609
0
LINE
8
BLACK
6
CONTINUOUS
10
547.6653749999999263
20
-301.3336249999999836
11
547.6653749999999263
21
-315.3336249999999836
0
LINE
8
BLACK
6
CONTINUOUS
10
561.6653749999999263
20
-339.4336250000000064
11
547.6653749999999263
21
-339.4336250000000064
0
LINE
8
BLACK
6
CONTINUOUS
10
490.5153750000000059
20
-301.3336249999999836
11
490.5153750000000059
21
-315.3336249999999836
0
LINE
8
BLACK
6
CONTINUOUS
10
571.1903750000000173
20
-320.383624999999995
11
557.1903750000000173
21
-320.383624999999995
0
LINE
8
BLACK
6
CONTINUOUS
10
509.5653749999999604
20
-296.2836249999999723
11
523.5653750000000173
21
-296.2836249999999723
0
LINE
8
BLACK
6
CONTINUOUS
10
504.5153749999999491
20
-296.2836249999999723
11
504.5153749999999491
21
-282.2836249999999723
0
LINE
8
BLACK
6
CONTINUOUS
10
509.5653749999999604
20
-282.2836249999999723
11
509.5653749999999604
21
-296.2836249999999723
0
ARC
8
BLACK
10
452.3153989999999567
20
-374.908600999999976
40
4.7625240000604716
50
-179.99971127
51
-90.00028873
0
LINE
8
BLACK
6
CONTINUOUS
10
580.7153749999999945
20
-315.3336249999999836
11
580.7153749999999945
21
-301.3336249999999836
0
LINE
8
BLACK
6
CONTINUOUS
10
552.1403749999999491
20
-334.383624999999995
11
552.1403749999999491
21
-320.383624999999995
0
LINE
8
BLACK
6
CONTINUOUS
10
528.6153749999999718
20
-301.3336249999999836
11
528.6153749999999718
21
-315.3336249999999836
0
LINE
8
BLACK
6
CONTINUOUS
10
576.2403749999999718
20
-320.383624999999995
11
576.2403749999999718
21
-334.383624999999995
0
LINE
8
BLACK
6
CONTINUOUS
10
557.1903750000000173
20
-334.383624999999995
11
571.1903750000000173
21
-334.383624999999995
0
LINE
8
BLACK
6
CONTINUOUS
10
585.7653749999999491
20
-315.3336249999999836
11
599.7653749999999491
21
-315.3336249999999836
0
LINE
8
BLACK
6
CONTINUOUS
10
576.2403749999999718
20
-334.383624999999995
11
590.2403749999999718
21
-334.383624999999995
0
LINE
8
BLACK
6
CONTINUOUS
10
590.2403749999999718
20
-320.383624999999995
11
576.2403749999999718
21
-320.383624999999995
0
LINE
8
BLACK
6
CONTINUOUS
10
471.4653749999999945
20
-358.4836249999999609
11
471.4653749999999945
21
-372.4836249999999609
0
LINE
8
BLACK
6
CONTINUOUS
10
561.6653749999999263
20
-282.2836249999999723
11
547.6653749999999263
21
-282.2836249999999723
0
LINE
8
BLACK
6
CONTINUOUS
10
547.6653749999999263
20
-353.4336250000000064
11
561.6653749999999263
21
-353.4336250000000064
0
LINE
8
BLACK
6
CONTINUOUS
10
538.1403749999999491
20
-320.383624999999995
11
538.1403749999999491
21
-334.383624999999995
0
LINE
8
BLACK
6
CONTINUOUS
10
547.6653749999999263
20
-339.4336250000000064
11
547.6653749999999263
21
-353.4336250000000064
0
LINE
8
BLACK
6
CONTINUOUS
10
557.1903750000000173
20
-320.383624999999995
11
557.1903750000000173
21
-334.383624999999995
0
LINE
8
BLACK
6
CONTINUOUS
10
466.4153749999999832
20
-339.4336250000000064
11
452.4153749999999832
21
-339.4336250000000064
0
LINE
8
BLACK
6
CONTINUOUS
10
547.6653749999999263
20
-315.3336249999999836
11
561.6653749999999263
21
-315.3336249999999836
0
LINE
8
BLACK
6
CONTINUOUS
10
566.7153749999999945
20
-296.2836249999999723
11
580.7153749999999945
21
-296.2836249999999723
0
LINE
8
BLACK
6
CONTINUOUS
10
566.7153749999999945
20
-353.4336250000000064
11
580.7153749999999945
21
-353.4336250000000064
0
LINE
8
BLACK
6
CONTINUOUS
10
523.5653750000000173
20
-282.2836249999999723
11
509.5653749999999604
21
-282.2836249999999723
0
LINE
8
BLACK
6
CONTINUOUS
10
504.5153749999999491
20
-315.3336249999999836
11
504.5153749999999491
21
-301.3336249999999836
0
LINE
8
BLACK
6
CONTINUOUS
10
452.4153749999999832
20
-372.4836249999999609
11
466.4153749999999832
21
-372.4836249999999609
0
LINE
8
BLACK
6
CONTINUOUS
10
618.8153750000000173
20
-296.2836249999999723
11
618.8153750000000173
21
-282.2836249999999723
0
LINE
8
BLACK
6
CONTINUOUS
10
566.7153749999999945
20
-301.3336249999999836
11
566.7153749999999945
21
-315.3336249999999836
0
LINE
8
BLACK
6
CONTINUOUS
10
490.5153750000000059
20
-315.3336249999999836
11
504.5153749999999491
21
-315.3336249999999836
0
LINE
8
BLACK
6
CONTINUOUS
10
566.7153749999999945
20
-339.4336250000000064
11
566.7153749999999945
21
-353.4336250000000064
0
LINE
8
BLACK
6
CONTINUOUS
10
542.6153749999999718
20
-339.4336250000000064
11
528.6153749999999718
21
-339.4336250000000064
0
LINE
8
BLACK
6
CONTINUOUS
10
514.0403749999999263
20
-320.383624999999995
11
500.0403749999999832
21
-320.383624999999995
0
LINE
8
BLACK
6
CONTINUOUS
10
471.4653749999999945
20
-372.4836249999999609
11
485.4653749999999945
21
-372.4836249999999609
0
LINE
8
BLACK
6
CONTINUOUS
10
528.6153749999999718
20
-315.3336249999999836
11
542.6153749999999718
21
-315.3336249999999836
0
LINE
8
BLACK
6
CONTINUOUS
10
637.8653749999999718
20
-301.3336249999999836
11
623.8653749999999718
21
-301.3336249999999836
0
LINE
8
BLACK
6
CONTINUOUS
10
490.5153750000000059
20
-282.2836249999999723
11
490.5153750000000059
21
-296.2836249999999723
0
LINE
8
BLACK
6
CONTINUOUS
10
490.5153750000000059
20
-296.2836249999999723
11
504.5153749999999491
21
-296.2836249999999723
0
LINE
8
BLACK
6
CONTINUOUS
10
580.7153749999999945
20
-339.4336250000000064
11
566.7153749999999945
21
-339.4336250000000064
0
LINE
8
BLACK
6
CONTINUOUS
10
623.8653749999999718
20
-301.3336249999999836
11
623.8653749999999718
21
-315.3336249999999836
0
LINE
8
BLACK
6
CONTINUOUS
10
628.3403749999999945
20
-334.383624999999995
11
628.3403749999999945
21
-320.383624999999995
0
LINE
8
BLACK
6
CONTINUOUS
10
547.6653749999999263
20
-282.2836249999999723
11
547.6653749999999263
21
-296.2836249999999723
0
LINE
8
BLACK
6
CONTINUOUS
10
542.6153749999999718
20
-315.3336249999999836
11
542.6153749999999718
21
-301.3336249999999836
0
LINE
8
BLACK
6
CONTINUOUS
10
561.6653749999999263
20
-296.2836249999999723
11
561.6653749999999263
21
-282.2836249999999723
0
LINE
8
BLACK
6
CONTINUOUS
10
504.5153749999999491
20
-301.3336249999999836
11
490.5153750000000059
21
-301.3336249999999836
0
LINE
8
BLACK
6
CONTINUOUS
10
471.4653749999999945
20
-296.2836249999999723
11
485.4653749999999945
21
-296.2836249999999723
0
LINE
8
BLACK
6
CONTINUOUS
10
585.7653749999999491
20
-296.2836249999999723
11
599.7653749999999491
21
-296.2836249999999723
0
LINE
8
BLACK
6
CONTINUOUS
10
590.2403749999999718
20
-334.383624999999995
11
590.2403749999999718
21
-320.383624999999995
0
LINE
8
BLACK
6
CONTINUOUS
10
566.7153749999999945
20
-315.3336249999999836
11
580.7153749999999945
21
-315.3336249999999836
0
LINE
8
BLACK
6
CONTINUOUS
10
561.6653749999999263
20
-301.3336249999999836
11
547.6653749999999263
21
-301.3336249999999836
0
LINE
8
BLACK
6
CONTINUOUS
10
523.5653750000000173
20
-301.3336249999999836
11
509.5653749999999604
21
-301.3336249999999836
0
LINE
8
BLACK
6
CONTINUOUS
10
637.8653749999999718
20
-358.4836249999999609
11
623.8653749999999718
21
-358.4836249999999609
0
LINE
8
BLACK
6
CONTINUOUS
10
475.9403749999999604
20
-334.383624999999995
11
475.9403749999999604
21
-320.383624999999995
0
LINE
8
BLACK
6
CONTINUOUS
10
475.9403749999999604
20
-320.383624999999995
11
461.9403749999999604
21
-320.383624999999995
0
LINE
8
BLACK
6
CONTINUOUS
10
580.7153749999999945
20
-353.4336250000000064
11
580.7153749999999945
21
-339.4336250000000064
0
LINE
8
BLACK
6
CONTINUOUS
10
599.7653749999999491
20
-296.2836249999999723
11
599.7653749999999491
21
-282.2836249999999723
0
LINE
8
BLACK
6
CONTINUOUS
10
585.7653749999999491
20
-339.4336250000000064
11
585.7653749999999491
21
-353.4336250000000064
0
LINE
8
BLACK
6
CONTINUOUS
10
623.8653749999999718
20
-358.4836249999999609
11
623.8653749999999718
21
-372.4836249999999609
0
LINE
8
BLACK
6
CONTINUOUS
10
599.7653749999999491
20
-339.4336250000000064
11
585.7653749999999491
21
-339.4336250000000064
0
LINE
8
BLACK
6
CONTINUOUS
10
533.0903749999999945
20
-320.383624999999995
11
519.0903749999999945
21
-320.383624999999995
0
LINE
8
BLACK
6
CONTINUOUS
10
509.5653749999999604
20
-339.4336250000000064
11
509.5653749999999604
21
-353.4336250000000064
0
LINE
8
BLACK
6
CONTINUOUS
10
466.4153749999999832
20
-372.4836249999999609
11
466.4153749999999832
21
-358.4836249999999609
0
LINE
8
BLACK
6
CONTINUOUS
10
509.5653749999999604
20
-315.3336249999999836
11
523.5653750000000173
21
-315.3336249999999836
0
LINE
8
BLACK
6
CONTINUOUS
10
504.5153749999999491
20
-282.2836249999999723
11
490.5153750000000059
21
-282.2836249999999723
0
LINE
8
BLACK
6
CONTINUOUS
10
523.5653750000000173
20
-315.3336249999999836
11
523.5653750000000173
21
-301.3336249999999836
0
LINE
8
BLACK
6
CONTINUOUS
10
471.4653749999999945
20
-282.2836249999999723
11
471.4653749999999945
21
-296.2836249999999723
0
LINE
8
BLACK
6
CONTINUOUS
10
514.3278749999999491
20
-372.4836249999999609
11
528.3278749999999491
21
-372.4836249999999609
0
LINE
8
BLACK
6
CONTINUOUS
10
514.3278749999999491
20
-358.4836249999999609
11
514.3278749999999491
21
-372.4836249999999609
0
LINE
8
BLACK
6
CONTINUOUS
10
595.2903749999999263
20
-334.383624999999995
11
609.2903749999999263
21
-334.383624999999995
0
LINE
8
BLACK
6
CONTINUOUS
10
523.5653750000000173
20
-339.4336250000000064
11
509.5653749999999604
21
-339.4336250000000064
0
LINE
8
BLACK
6
CONTINUOUS
10
623.8653749999999718
20
-315.3336249999999836
11
637.8653749999999718
21
-315.3336249999999836
0
LINE
8
BLACK
6
CONTINUOUS
10
618.8153750000000173
20
-372.4836249999999609
11
618.8153750000000173
21
-358.4836249999999609
0
LINE
8
BLACK
6
CONTINUOUS
10
580.7153749999999945
20
-301.3336249999999836
11
566.7153749999999945
21
-301.3336249999999836
0
LINE
8
BLACK
6
CONTINUOUS
10
466.4153749999999832
20
-301.3336249999999836
11
452.4153749999999832
21
-301.3336249999999836
0
LINE
8
BLACK
6
CONTINUOUS
10
490.5153750000000059
20
-358.4836249999999609
11
490.5153750000000059
21
-372.4836249999999609
0
LINE
8
BLACK
6
CONTINUOUS
10
561.6653749999999263
20
-353.4336250000000064
11
561.6653749999999263
21
-339.4336250000000064
0
LINE
8
BLACK
6
CONTINUOUS
10
623.8653749999999718
20
-372.4836249999999609
11
637.8653749999999718
21
-372.4836249999999609
0
LINE
8
BLACK
6
CONTINUOUS
10
485.4653749999999945
20
-353.4336250000000064
11
485.4653749999999945
21
-339.4336250000000064
0
LINE
8
BLACK
6
CONTINUOUS
10
604.8153750000000173
20
-296.2836249999999723
11
618.8153750000000173
21
-296.2836249999999723
0
LINE
8
BLACK
6
CONTINUOUS
10
637.8653749999999718
20
-282.2836249999999723
11
623.8653749999999718
21
-282.2836249999999723
0
LINE
8
BLACK
6
CONTINUOUS
10
609.2903749999999263
20
-320.383624999999995
11
595.2903749999999263
21
-320.383624999999995
0
LINE
8
BLACK
6
CONTINUOUS
10
585.7653749999999491
20
-301.3336249999999836
11
585.7653749999999491
21
-315.3336249999999836
0
LINE
8
BLACK
6
CONTINUOUS
10
500.0403749999999832
20
-334.383624999999995
11
514.0403749999999263
21
-334.383624999999995
0
LINE
8
BLACK
6
CONTINUOUS
10
504.5153749999999491
20
-358.4836249999999609
11
490.5153750000000059
21
-358.4836249999999609
0
LINE
8
BLACK
6
CONTINUOUS
10
528.6153749999999718
20
-353.4336250000000064
11
542.6153749999999718
21
-353.4336250000000064
0
LINE
8
BLACK
6
CONTINUOUS
10
618.8153750000000173
20
-315.3336249999999836
11
618.8153750000000173
21
-301.3336249999999836
0
LINE
8
BLACK
6
CONTINUOUS
10
637.8653749999999718
20
-296.2836249999999723
11
637.8653749999999718
21
-282.2836249999999723
0
LINE
8
BLACK
6
CONTINUOUS
10
485.4653749999999945
20
-301.3336249999999836
11
471.4653749999999945
21
-301.3336249999999836
0
LINE
8
BLACK
6
CONTINUOUS
10
609.2903749999999263
20
-334.383624999999995
11
609.2903749999999263
21
-320.383624999999995
0
LINE
8
BLACK
6
CONTINUOUS
10
599.7653749999999491
20
-353.4336250000000064
11
599.7653749999999491
21
-339.4336250000000064
0
LINE
8
BLACK
6
CONTINUOUS
10
500.0403749999999832
20
-320.383624999999995
11
500.0403749999999832
21
-334.383624999999995
0
LINE
8
BLACK
6
CONTINUOUS
10
452.4153749999999832
20
-339.4336250000000064
11
452.4153749999999832
21
-353.4336250000000064
0
LINE
8
BLACK
6
CONTINUOUS
10
452.4153749999999832
20
-315.3336249999999836
11
466.4153749999999832
21
-315.3336249999999836
0
LINE
8
BLACK
6
CONTINUOUS
10
571.1903750000000173
20
-334.383624999999995
11
571.1903750000000173
21
-320.383624999999995
0
LINE
8
BLACK
6
CONTINUOUS
10
519.0903749999999945
20
-320.383624999999995
11
519.0903749999999945
21
-334.383624999999995
0
LINE
8
BLACK
6
CONTINUOUS
10
604.8153750000000173
20
-372.4836249999999609
11
618.8153750000000173
21
-372.4836249999999609
0
LINE
8
BLACK
6
CONTINUOUS
10
519.0903749999999945
20
-334.383624999999995
11
533.0903749999999945
21
-334.383624999999995
0
LINE
8
BLACK
6
CONTINUOUS
10
604.8153750000000173
20
-358.4836249999999609
11
604.8153750000000173
21
-372.4836249999999609
0
LINE
8
BLACK
6
CONTINUOUS
10
466.4153749999999832
20
-358.4836249999999609
11
452.4153749999999832
21
-358.4836249999999609
0
LINE
8
BLACK
6
CONTINUOUS
10
637.8653749999999718
20
-372.4836249999999609
11
637.8653749999999718
21
-358.4836249999999609
0
LINE
8
BLACK
6
CONTINUOUS
10
461.9403749999999604
20
-320.383624999999995
11
461.9403749999999604
21
-334.383624999999995
0
LINE
8
BLACK
6
CONTINUOUS
10
538.1403749999999491
20
-358.4836249999999609
11
538.1403749999999491
21
-372.4836249999999609
0
LINE
8
BLACK
6
CONTINUOUS
10
623.8653749999999718
20
-282.2836249999999723
11
623.8653749999999718
21
-296.2836249999999723
0
LINE
8
BLACK
6
CONTINUOUS
10
561.9528749999999491
20
-358.4836249999999609
11
561.9528749999999491
21
-372.4836249999999609
0
LINE
8
BLACK
6
CONTINUOUS
10
528.3278749999999491
20
-372.4836249999999609
11
528.3278749999999491
21
-358.4836249999999609
0
LINE
8
BLACK
6
CONTINUOUS
10
595.2903749999999263
20
-320.383624999999995
11
595.2903749999999263
21
-334.383624999999995
0
LINE
8
BLACK
6
CONTINUOUS
10
618.8153750000000173
20
-339.4336250000000064
11
604.8153750000000173
21
-339.4336250000000064
0
LINE
8
BLACK
6
CONTINUOUS
10
509.5653749999999604
20
-353.4336250000000064
11
523.5653750000000173
21
-353.4336250000000064
0
LINE
8
BLACK
6
CONTINUOUS
10
585.7653749999999491
20
-282.2836249999999723
11
585.7653749999999491
21
-296.2836249999999723
0
LINE
8
BLACK
6
CONTINUOUS
10
480.9903749999999718
20
-320.383624999999995
11
480.9903749999999718
21
-334.383624999999995
0
LINE
8
BLACK
6
CONTINUOUS
10
637.8653749999999718
20
-315.3336249999999836
11
637.8653749999999718
21
-301.3336249999999836
0
LINE
8
BLACK
6
CONTINUOUS
10
618.8153750000000173
20
-358.4836249999999609
11
604.8153750000000173
21
-358.4836249999999609
0
LINE
8
BLACK
6
CONTINUOUS
10
471.4653749999999945
20
-353.4336250000000064
11
485.4653749999999945
21
-353.4336250000000064
0
LINE
8
BLACK
6
CONTINUOUS
10
485.4653749999999945
20
-282.2836249999999723
11
471.4653749999999945
21
-282.2836249999999723
0
LINE
8
BLACK
6
CONTINUOUS
10
452.4153749999999832
20
-301.3336249999999836
11
452.4153749999999832
21
-315.3336249999999836
0
LINE
8
BLACK
6
CONTINUOUS
10
523.5653750000000173
20
-353.4336250000000064
11
523.5653750000000173
21
-339.4336250000000064
0
LINE
8
BLACK
6
CONTINUOUS
10
490.5153750000000059
20
-339.4336250000000064
11
490.5153750000000059
21
-353.4336250000000064
0
LINE
8
BLACK
6
CONTINUOUS
10
509.5653749999999604
20
-301.3336249999999836
11
509.5653749999999604
21
-315.3336249999999836
0
LINE
8
BLACK
6
CONTINUOUS
10
561.6653749999999263
20
-315.3336249999999836
11
561.6653749999999263
21
-301.3336249999999836
0
LINE
8
BLACK
6
CONTINUOUS
10
452.4153749999999832
20
-353.4336250000000064
11
466.4153749999999832
21
-353.4336250000000064
0
LINE
8
BLACK
6
CONTINUOUS
10
494.9903749999999718
20
-334.383624999999995
11
494.9903749999999718
21
-320.383624999999995
0
LINE
8
BLACK
6
CONTINUOUS
10
471.4653749999999945
20
-301.3336249999999836
11
471.4653749999999945
21
-315.3336249999999836
0
LINE
8
BLACK
6
CONTINUOUS
10
533.0903749999999945
20
-334.383624999999995
11
533.0903749999999945
21
-320.383624999999995
0
LINE
8
BLACK
6
CONTINUOUS
10
599.7653749999999491
20
-282.2836249999999723
11
585.7653749999999491
21
-282.2836249999999723
0
LINE
8
BLACK
6
CONTINUOUS
10
528.3278749999999491
20
-358.4836249999999609
11
514.3278749999999491
21
-358.4836249999999609
0
LINE
8
BLACK
6
CONTINUOUS
10
490.5153750000000059
20
-353.4336250000000064
11
504.5153749999999491
21
-353.4336250000000064
0
LINE
8
BLACK
6
CONTINUOUS
10
585.7653749999999491
20
-353.4336250000000064
11
599.7653749999999491
21
-353.4336250000000064
0
LINE
8
BLACK
6
CONTINUOUS
10
552.1403749999999491
20
-320.383624999999995
11
538.1403749999999491
21
-320.383624999999995
0
LINE
8
BLACK
6
CONTINUOUS
10
504.5153749999999491
20
-372.4836249999999609
11
504.5153749999999491
21
-358.4836249999999609
0
LINE
8
BLACK
6
CONTINUOUS
10
642.8153750000000173
20
-374.9086249999999723
11
642.8153750000000173
21
-251.0836249999999836
0
LINE
8
BLACK
6
CONTINUOUS
10
599.7653749999999491
20
-301.3336249999999836
11
585.7653749999999491
21
-301.3336249999999836
0
LINE
8
BLACK
6
CONTINUOUS
10
638.0528749999999718
20
-379.6711249999999609
11
452.3153749999999604
21
-379.6711249999999609
  0
ENDSEC
  0
EOF
