M48
; DRILL file {KiCad 8.0.6} date 2024-11-17T06:17:46-0700
; FORMAT={-:-/ absolute / inch / decimal}
; #@! TF.CreationDate,2024-11-17T06:17:46-07:00
; #@! TF.GenerationSoftware,Kicad,Pcbnew,8.0.6
; #@! TF.FileFunction,NonPlated,1,2,NPTH
FMAT,2
INCH
; #@! TA.AperFunction,NonPlated,NPTH,ComponentDrill
T1C0.0197
; #@! TA.AperFunction,NonPlated,NPTH,ComponentDrill
T2C0.0670
; #@! TA.AperFunction,NonPlated,NPTH,ComponentDrill
T3C0.0866
; #@! TA.AperFunction,NonPlated,NPTH,ComponentDrill
T4C0.1181
; #@! TA.AperFunction,NonPlated,NPTH,ComponentDrill
T5C0.1570
%
G90
G05
T1
X4.2266Y-7.2772
X4.2266Y-7.3363
X4.2266Y-12.6059
X4.2266Y-12.665
X4.2561Y-7.2772
X4.2561Y-7.3363
X4.2561Y-12.6059
X4.2561Y-12.665
X4.2856Y-7.2772
X4.2856Y-7.3363
X4.2856Y-12.6059
X4.2856Y-12.665
X6.1951Y-7.2772
X6.1951Y-7.3363
X6.1951Y-12.6059
X6.1951Y-12.665
X6.2246Y-7.2772
X6.2246Y-7.3363
X6.2246Y-12.6059
X6.2246Y-12.665
X6.2541Y-7.2772
X6.2541Y-7.3363
X6.2541Y-12.6059
X6.2541Y-12.665
X8.1636Y-7.2772
X8.1636Y-7.3363
X8.1636Y-12.6059
X8.1636Y-12.665
X8.1931Y-7.2772
X8.1931Y-7.3363
X8.1931Y-12.6059
X8.1931Y-12.665
X8.2227Y-7.2772
X8.2227Y-7.3363
X8.2227Y-12.6059
X8.2227Y-12.665
X10.1321Y-7.2772
X10.1321Y-7.3363
X10.1321Y-12.6059
X10.1321Y-12.665
X10.1616Y-7.2772
X10.1616Y-7.3363
X10.1616Y-12.6059
X10.1616Y-12.665
X10.1912Y-7.2772
X10.1912Y-7.3363
X10.1912Y-12.6059
X10.1912Y-12.665
T2
X3.8681Y-9.0336
X3.8681Y-9.7836
X3.8681Y-11.2836
X3.8681Y-12.0336
X4.2431Y-10.5336
X4.2681Y-9.0336
X4.2681Y-9.7836
X4.2681Y-11.2836
X4.2681Y-12.0336
X4.6181Y-9.0336
X4.6181Y-9.7836
X4.6181Y-11.2836
X4.6181Y-12.0336
X4.6431Y-10.5336
X4.9931Y-10.5336
X5.0181Y-9.0336
X5.0181Y-9.7836
X5.0181Y-11.2836
X5.0181Y-12.0336
X5.3681Y-9.0336
X5.3681Y-9.7836
X5.3681Y-11.2836
X5.3681Y-12.0336
X5.3931Y-10.5336
X5.7431Y-10.5336
X5.7681Y-9.0336
X5.7681Y-9.7836
X5.7681Y-11.2836
X5.7681Y-12.0336
X6.1181Y-9.0336
X6.1181Y-9.7836
X6.1181Y-11.2836
X6.1431Y-10.5336
X6.3017Y-12.0336
X6.4931Y-10.5336
X6.5181Y-9.0336
X6.5181Y-9.7836
X6.5181Y-11.2836
X6.7017Y-12.0336
X6.8681Y-9.0336
X6.8681Y-9.7836
X6.8681Y-11.2836
X6.8931Y-10.5336
X7.2431Y-10.5336
X7.2431Y-12.0336
X7.2681Y-9.0336
X7.2681Y-9.7836
X7.2681Y-11.2836
X7.6181Y-9.0336
X7.6181Y-9.7836
X7.6181Y-11.2836
X7.6431Y-10.5336
X7.6431Y-12.0336
X7.9931Y-10.5336
X8.0181Y-9.0336
X8.0181Y-9.7836
X8.0181Y-11.2836
X8.1806Y-12.0336
X8.3681Y-9.0336
X8.3681Y-9.7836
X8.3681Y-11.2836
X8.3931Y-10.5336
X8.5806Y-12.0336
X8.7431Y-10.5336
X8.7681Y-9.0336
X8.7681Y-9.7836
X8.7681Y-11.2836
X9.1181Y-9.0336
X9.1181Y-9.7836
X9.1181Y-11.2836
X9.1181Y-12.0336
X9.1431Y-10.5336
X9.4931Y-10.5336
X9.5181Y-9.0336
X9.5181Y-9.7836
X9.5181Y-11.2836
X9.5181Y-12.0336
X9.8681Y-9.0336
X9.8681Y-9.7836
X9.8681Y-11.2836
X9.8681Y-12.0336
X9.8931Y-10.5336
X10.2431Y-10.5336
X10.2681Y-9.0336
X10.2681Y-9.7836
X10.2681Y-11.2836
X10.2681Y-12.0336
X10.6181Y-9.0336
X10.6181Y-9.7836
X10.6181Y-11.2836
X10.6181Y-12.0336
X10.6431Y-10.5336
X11.0181Y-9.0336
X11.0181Y-9.7836
X11.0181Y-11.2836
X11.0181Y-12.0336
T3
X3.7457Y-3.283
X3.7457Y-7.1267
X3.7457Y-7.4867
X3.7457Y-8.3305
X3.7457Y-8.6117
X3.7457Y-12.4555
X3.7457Y-12.8155
X3.7457Y-13.6592
X3.7457Y-13.9405
X3.7457Y-17.7842
X6.4119Y-15.5024
X6.6931Y-4.8149
X6.6931Y-10.1586
X8.1931Y-3.283
X8.1931Y-7.1267
X8.1931Y-8.6117
X8.1931Y-12.4555
X8.1931Y-13.9405
X8.1931Y-17.7842
X8.1931Y-8.2836
X8.1931Y-13.6123
X9.6931Y-4.8299
X9.6931Y-10.1586
X9.6931Y-15.4873
X11.1519Y-3.283
X11.1519Y-7.1267
X11.1519Y-7.4867
X11.1519Y-9.3617
X11.1519Y-12.4555
X11.1519Y-12.8155
X11.1519Y-14.6905
X11.1519Y-17.7842
X11.1519Y-8.1055
X11.1519Y-13.4492
T4
X3.9181Y-8.9336
X3.9181Y-9.6836
X3.9181Y-11.1836
X3.9181Y-11.9336
X4.1681Y-8.8336
X4.1681Y-9.5836
X4.1681Y-11.0836
X4.1681Y-11.8336
X4.2931Y-10.4336
X4.5431Y-10.3336
X4.6681Y-8.9336
X4.6681Y-9.6836
X4.6681Y-11.1836
X4.6681Y-11.9336
X4.9181Y-8.8336
X4.9181Y-9.5836
X4.9181Y-11.0836
X4.9181Y-11.8336
X5.0431Y-10.4336
X5.2931Y-10.3336
X5.4181Y-8.9336
X5.4181Y-9.6836
X5.4181Y-11.1836
X5.4181Y-11.9336
X5.6681Y-8.8336
X5.6681Y-9.5836
X5.6681Y-11.0836
X5.6681Y-11.8336
X5.7931Y-10.4336
X6.0431Y-10.3336
X6.1681Y-8.9336
X6.1681Y-9.6836
X6.1681Y-11.1836
X6.3517Y-11.9336
X6.4181Y-8.8336
X6.4181Y-9.5836
X6.4181Y-11.0836
X6.5431Y-10.4336
X6.6017Y-11.8336
X6.7931Y-10.3336
X6.9181Y-8.9336
X6.9181Y-9.6836
X6.9181Y-11.1836
X7.1681Y-8.8336
X7.1681Y-9.5836
X7.1681Y-11.0836
X7.2931Y-10.4336
X7.2931Y-11.9336
X7.5431Y-10.3336
X7.5431Y-11.8336
X7.6681Y-8.9336
X7.6681Y-9.6836
X7.6681Y-11.1836
X7.9181Y-8.8336
X7.9181Y-9.5836
X7.9181Y-11.0836
X8.0431Y-10.4336
X8.2306Y-11.9336
X8.2931Y-10.3336
X8.4181Y-8.9336
X8.4181Y-9.6836
X8.4181Y-11.1836
X8.4806Y-11.8336
X8.6681Y-8.8336
X8.6681Y-9.5836
X8.6681Y-11.0836
X8.7931Y-10.4336
X9.0431Y-10.3336
X9.1681Y-8.9336
X9.1681Y-9.6836
X9.1681Y-11.1836
X9.1681Y-11.9336
X9.4181Y-8.8336
X9.4181Y-9.5836
X9.4181Y-11.0836
X9.4181Y-11.8336
X9.5431Y-10.4336
X9.7931Y-10.3336
X9.9181Y-8.9336
X9.9181Y-9.6836
X9.9181Y-11.1836
X9.9181Y-11.9336
X10.1681Y-8.8336
X10.1681Y-9.5836
X10.1681Y-11.0836
X10.1681Y-11.8336
X10.2931Y-10.4336
X10.5431Y-10.3336
X10.6681Y-8.9336
X10.6681Y-9.6836
X10.6681Y-11.1836
X10.6681Y-11.9336
X10.9181Y-8.8336
X10.9181Y-9.5836
X10.9181Y-11.0836
X10.9181Y-11.8336
T5
X4.0681Y-9.0336
X4.0681Y-9.7836
X4.0681Y-11.2836
X4.0681Y-12.0336
X4.4431Y-10.5336
X4.8181Y-9.0336
X4.8181Y-9.7836
X4.8181Y-11.2836
X4.8181Y-12.0336
X5.1931Y-10.5336
X5.5681Y-9.0336
X5.5681Y-9.7836
X5.5681Y-11.2836
X5.5681Y-12.0336
X5.9431Y-10.5336
X6.3181Y-9.0336
X6.3181Y-9.7836
X6.3181Y-11.2836
X6.5017Y-12.0336
X6.6931Y-10.5336
X7.0681Y-9.0336
X7.0681Y-9.7836
X7.0681Y-11.2836
X7.4431Y-10.5336
X7.4431Y-12.0336
X7.8181Y-9.0336
X7.8181Y-9.7836
X7.8181Y-11.2836
X8.1931Y-10.5336
X8.3806Y-12.0336
X8.5681Y-9.0336
X8.5681Y-9.7836
X8.5681Y-11.2836
X8.9431Y-10.5336
X9.3181Y-9.0336
X9.3181Y-9.7836
X9.3181Y-11.2836
X9.3181Y-12.0336
X9.6931Y-10.5336
X10.0681Y-9.0336
X10.0681Y-9.7836
X10.0681Y-11.2836
X10.0681Y-12.0336
X10.4431Y-10.5336
X10.8181Y-9.0336
X10.8181Y-9.7836
X10.8181Y-11.2836
X10.8181Y-12.0336
M30
