%TF.GenerationSoftware,KiCad,Pcbnew,8.0.6*%
%TF.CreationDate,2024-11-17T06:17:46-07:00*%
%TF.ProjectId,framework,6672616d-6577-46f7-926b-2e6b69636164,1*%
%TF.SameCoordinates,Original*%
%TF.FileFunction,Profile,NP*%
%FSLAX46Y46*%
G04 Gerber Fmt 4.6, Leading zero omitted, Abs format (unit mm)*
G04 Created by KiCad (PCBNEW 8.0.6) date 2024-11-17 06:17:46*
%MOMM*%
%LPD*%
G01*
G04 APERTURE LIST*
%TA.AperFunction,Profile*%
%ADD10C,0.050000*%
%TD*%
G04 APERTURE END LIST*
D10*
X219867875Y-163303625D02*
X205867875Y-163303625D01*
X91567875Y-450528625D02*
X91567875Y-326703625D01*
X96330375Y-319941125D02*
X91567875Y-319941125D01*
X96330375Y-79816125D02*
X282067875Y-79816125D01*
X106105375Y-321941125D02*
X96330375Y-321941125D01*
X243680375Y-177303625D02*
X243680375Y-163303625D01*
X260105375Y-321941125D02*
X282067875Y-321941125D01*
X91567875Y-315178625D02*
X91567875Y-319941125D01*
X205867875Y-163303625D02*
X205867875Y-177303625D01*
X229680375Y-177303625D02*
X243680375Y-177303625D01*
X196055375Y-177303625D02*
X196055375Y-163303625D01*
X260105375Y-319941125D02*
X282067875Y-319941125D01*
X243680375Y-163303625D02*
X229680375Y-163303625D01*
X260105375Y-184591125D02*
X282067875Y-184591125D01*
X196055375Y-163303625D02*
X182055375Y-163303625D01*
X96330375Y-319941125D02*
X106105375Y-319941125D01*
X229680375Y-163303625D02*
X229680375Y-177303625D01*
X282067875Y-455291125D02*
X96330375Y-455291125D01*
X260105375Y-186591125D02*
X282067875Y-186591125D01*
X219867875Y-177303625D02*
X219867875Y-163303625D01*
X191580375Y-101103625D02*
X205580375Y-101103625D01*
X248730375Y-158253625D02*
X262730375Y-158253625D01*
X248730375Y-106153625D02*
X248730375Y-120153625D01*
X262730375Y-106153625D02*
X248730375Y-106153625D01*
X172530375Y-144253625D02*
X172530375Y-158253625D01*
X248730375Y-144253625D02*
X248730375Y-158253625D01*
X172530375Y-158253625D02*
X186530375Y-158253625D01*
X248730375Y-120153625D02*
X262730375Y-120153625D01*
X281780375Y-120153625D02*
X281780375Y-106153625D01*
X282067875Y-321941125D02*
G75*
G02*
X286830375Y-326703625I25J-4762475D01*
G01*
X243680375Y-144253625D02*
X229680375Y-144253625D01*
X272255375Y-139203625D02*
X272255375Y-125203625D01*
X267780375Y-101103625D02*
X281780375Y-101103625D01*
X262730375Y-158253625D02*
X262730375Y-144253625D01*
X172530375Y-101103625D02*
X186530375Y-101103625D01*
X258255375Y-125203625D02*
X258255375Y-139203625D01*
X186530375Y-87103625D02*
X172530375Y-87103625D01*
X267780375Y-158253625D02*
X281780375Y-158253625D01*
X281780375Y-144253625D02*
X267780375Y-144253625D01*
X182055375Y-139203625D02*
X196055375Y-139203625D01*
X258255375Y-139203625D02*
X272255375Y-139203625D01*
X186530375Y-106153625D02*
X172530375Y-106153625D01*
X224630375Y-101103625D02*
X224630375Y-87103625D01*
X224630375Y-87103625D02*
X210630375Y-87103625D01*
X243680375Y-120153625D02*
X243680375Y-106153625D01*
X91567875Y-191353625D02*
X91567875Y-315178625D01*
X205580375Y-120153625D02*
X205580375Y-106153625D01*
X182055375Y-125203625D02*
X182055375Y-139203625D01*
X267780375Y-120153625D02*
X281780375Y-120153625D01*
X129380375Y-177303625D02*
X129380375Y-163303625D01*
X262730375Y-144253625D02*
X248730375Y-144253625D01*
X110330375Y-163303625D02*
X96330375Y-163303625D01*
X281780375Y-158253625D02*
X281780375Y-144253625D01*
X110330375Y-177303625D02*
X110330375Y-163303625D01*
X282067875Y-79816125D02*
G75*
G02*
X286830375Y-84578625I25J-4762475D01*
G01*
X115380375Y-163303625D02*
X115380375Y-177303625D01*
X182055375Y-163303625D02*
X182055375Y-177303625D01*
X262730375Y-101103625D02*
X262730375Y-87103625D01*
X262730375Y-87103625D02*
X248730375Y-87103625D01*
X286830375Y-315178625D02*
G75*
G02*
X282067875Y-319941075I-4762475J25D01*
G01*
X267780375Y-144253625D02*
X267780375Y-158253625D01*
X253205375Y-125203625D02*
X239205375Y-125203625D01*
X286830375Y-315178625D02*
X286830375Y-191353625D01*
X182055375Y-177303625D02*
X196055375Y-177303625D01*
X115380375Y-177303625D02*
X129380375Y-177303625D01*
X96330375Y-319941125D02*
G75*
G02*
X91567875Y-315178625I25J4762525D01*
G01*
X286830375Y-450528625D02*
G75*
G02*
X282067875Y-455291075I-4762475J25D01*
G01*
X96330375Y-184591125D02*
G75*
G02*
X91567875Y-179828625I25J4762525D01*
G01*
X96330375Y-455291125D02*
G75*
G02*
X91567875Y-450528625I25J4762525D01*
G01*
X91567875Y-84578625D02*
G75*
G02*
X96330375Y-79816075I4762525J25D01*
G01*
X96330375Y-163303625D02*
X96330375Y-177303625D01*
X186530375Y-101103625D02*
X186530375Y-87103625D01*
X286830375Y-326703625D02*
X286830375Y-450528625D01*
X191580375Y-120153625D02*
X205580375Y-120153625D01*
X153480375Y-87103625D02*
X153480375Y-101103625D01*
X234155375Y-125203625D02*
X220155375Y-125203625D01*
X220155375Y-125203625D02*
X220155375Y-139203625D01*
X210105375Y-186591125D02*
G75*
G02*
X210105375Y-184591075I25J1000025D01*
G01*
X191580375Y-144253625D02*
X191580375Y-158253625D01*
X172530375Y-120153625D02*
X186530375Y-120153625D01*
X215105375Y-125203625D02*
X201105375Y-125203625D01*
X157955375Y-125203625D02*
X143955375Y-125203625D01*
X172530375Y-106153625D02*
X172530375Y-120153625D01*
X205580375Y-144253625D02*
X191580375Y-144253625D01*
X205580375Y-87103625D02*
X191580375Y-87103625D01*
X134430375Y-106153625D02*
X134430375Y-120153625D01*
X201105375Y-139203625D02*
X215105375Y-139203625D01*
X186530375Y-158253625D02*
X186530375Y-144253625D01*
X205580375Y-158253625D02*
X205580375Y-144253625D01*
X143955375Y-125203625D02*
X143955375Y-139203625D01*
X153480375Y-101103625D02*
X167480375Y-101103625D01*
X210630375Y-101103625D02*
X224630375Y-101103625D01*
X210630375Y-144253625D02*
X210630375Y-158253625D01*
X110105375Y-186591125D02*
G75*
G02*
X110105375Y-184591075I25J1000025D01*
G01*
X215105375Y-139203625D02*
X215105375Y-125203625D01*
X167480375Y-101103625D02*
X167480375Y-87103625D01*
X201105375Y-125203625D02*
X201105375Y-139203625D01*
X272255375Y-125203625D02*
X258255375Y-125203625D01*
X224630375Y-158253625D02*
X224630375Y-144253625D01*
X148430375Y-106153625D02*
X134430375Y-106153625D01*
X191580375Y-106153625D02*
X191580375Y-120153625D01*
X167480375Y-87103625D02*
X153480375Y-87103625D01*
X206105375Y-184591125D02*
G75*
G02*
X206105375Y-186591075I25J-999975D01*
G01*
X260105375Y-186591125D02*
G75*
G02*
X260105375Y-184591075I25J1000025D01*
G01*
X220155375Y-139203625D02*
X234155375Y-139203625D01*
X134430375Y-120153625D02*
X148430375Y-120153625D01*
X224630375Y-106153625D02*
X210630375Y-106153625D01*
X210630375Y-158253625D02*
X224630375Y-158253625D01*
X224630375Y-120153625D02*
X224630375Y-106153625D01*
X191580375Y-158253625D02*
X205580375Y-158253625D01*
X267780375Y-106153625D02*
X267780375Y-120153625D01*
X186530375Y-120153625D02*
X186530375Y-106153625D01*
X110105375Y-184591125D02*
X156105375Y-184591125D01*
X224630375Y-144253625D02*
X210630375Y-144253625D01*
X148430375Y-101103625D02*
X148430375Y-87103625D01*
X196055375Y-125203625D02*
X182055375Y-125203625D01*
X234155375Y-139203625D02*
X234155375Y-125203625D01*
X205580375Y-101103625D02*
X205580375Y-87103625D01*
X205580375Y-106153625D02*
X191580375Y-106153625D01*
X210630375Y-120153625D02*
X224630375Y-120153625D01*
X256105375Y-184591125D02*
G75*
G02*
X256105375Y-186591075I25J-999975D01*
G01*
X160105375Y-184591125D02*
X206105375Y-184591125D01*
X286830375Y-179828625D02*
G75*
G02*
X282067875Y-184591075I-4762475J25D01*
G01*
X260105375Y-321941125D02*
G75*
G02*
X260105375Y-319941075I25J1000025D01*
G01*
X160105375Y-321941125D02*
G75*
G02*
X160105375Y-319941075I25J1000025D01*
G01*
X156105375Y-319941125D02*
G75*
G02*
X156105375Y-321941075I25J-999975D01*
G01*
X206105375Y-319941125D02*
G75*
G02*
X206105375Y-321941075I25J-999975D01*
G01*
X229680375Y-120153625D02*
X243680375Y-120153625D01*
X160105375Y-319941125D02*
X206105375Y-319941125D01*
X210105375Y-321941125D02*
X256105375Y-321941125D01*
X91567875Y-179828625D02*
X91567875Y-84578625D01*
X256105375Y-319941125D02*
G75*
G02*
X256105375Y-321941075I25J-999975D01*
G01*
X160105375Y-186591125D02*
G75*
G02*
X160105375Y-184591075I25J1000025D01*
G01*
X91567875Y-326703625D02*
G75*
G02*
X96330375Y-321941075I4762525J25D01*
G01*
X210105375Y-319941125D02*
X256105375Y-319941125D01*
X106105375Y-319941125D02*
G75*
G02*
X106105375Y-321941075I25J-999975D01*
G01*
X281780375Y-163303625D02*
X267780375Y-163303625D01*
X248730375Y-163303625D02*
X248730375Y-177303625D01*
X153480375Y-120153625D02*
X167480375Y-120153625D01*
X153480375Y-158253625D02*
X167480375Y-158253625D01*
X153480375Y-106153625D02*
X153480375Y-120153625D01*
X96330375Y-186591125D02*
X106105375Y-186591125D01*
X177005375Y-139203625D02*
X177005375Y-125203625D01*
X138905375Y-139203625D02*
X138905375Y-125203625D01*
X129380375Y-158253625D02*
X129380375Y-144253625D01*
X267780375Y-87103625D02*
X267780375Y-101103625D01*
X243680375Y-158253625D02*
X243680375Y-144253625D01*
X167480375Y-144253625D02*
X153480375Y-144253625D01*
X167480375Y-106153625D02*
X153480375Y-106153625D01*
X243680375Y-106153625D02*
X229680375Y-106153625D01*
X243680375Y-87103625D02*
X229680375Y-87103625D01*
X229680375Y-144253625D02*
X229680375Y-158253625D01*
X210105375Y-186591125D02*
X256105375Y-186591125D01*
X148430375Y-120153625D02*
X148430375Y-106153625D01*
X156105375Y-184591125D02*
G75*
G02*
X156105375Y-186591075I25J-999975D01*
G01*
X134430375Y-101103625D02*
X148430375Y-101103625D01*
X167480375Y-120153625D02*
X167480375Y-106153625D01*
X110105375Y-321941125D02*
X156105375Y-321941125D01*
X110105375Y-319941125D02*
X156105375Y-319941125D01*
X267780375Y-163303625D02*
X267780375Y-177303625D01*
X248730375Y-177303625D02*
X262730375Y-177303625D01*
X262730375Y-163303625D02*
X248730375Y-163303625D01*
X253205375Y-139203625D02*
X253205375Y-125203625D01*
X153480375Y-144253625D02*
X153480375Y-158253625D01*
X282067875Y-186591125D02*
G75*
G02*
X286830375Y-191353625I25J-4762475D01*
G01*
X163005375Y-125203625D02*
X163005375Y-139203625D01*
X134430375Y-158253625D02*
X148430375Y-158253625D01*
X160105375Y-321941125D02*
X206105375Y-321941125D01*
X210105375Y-321941125D02*
G75*
G02*
X210105375Y-319941075I25J1000025D01*
G01*
X110105375Y-186591125D02*
X156105375Y-186591125D01*
X163005375Y-139203625D02*
X177005375Y-139203625D01*
X191580375Y-87103625D02*
X191580375Y-101103625D01*
X229680375Y-158253625D02*
X243680375Y-158253625D01*
X281780375Y-101103625D02*
X281780375Y-87103625D01*
X229680375Y-87103625D02*
X229680375Y-101103625D01*
X129380375Y-163303625D02*
X115380375Y-163303625D01*
X196055375Y-139203625D02*
X196055375Y-125203625D01*
X210105375Y-184591125D02*
X256105375Y-184591125D01*
X281780375Y-106153625D02*
X267780375Y-106153625D01*
X110105375Y-321941125D02*
G75*
G02*
X110105375Y-319941075I25J1000025D01*
G01*
X205867875Y-177303625D02*
X219867875Y-177303625D01*
X106105375Y-184591125D02*
G75*
G02*
X106105375Y-186591075I25J-999975D01*
G01*
X160105375Y-186591125D02*
X206105375Y-186591125D01*
X239205375Y-125203625D02*
X239205375Y-139203625D01*
X262730375Y-120153625D02*
X262730375Y-106153625D01*
X248730375Y-101103625D02*
X262730375Y-101103625D01*
X239205375Y-139203625D02*
X253205375Y-139203625D01*
X177005375Y-125203625D02*
X163005375Y-125203625D01*
X281780375Y-177303625D02*
X281780375Y-163303625D01*
X124905375Y-125203625D02*
X124905375Y-139203625D01*
X129380375Y-106153625D02*
X115380375Y-106153625D01*
X110330375Y-106153625D02*
X96330375Y-106153625D01*
X134430375Y-163303625D02*
X134430375Y-177303625D01*
X119855375Y-139203625D02*
X119855375Y-125203625D01*
X96330375Y-144253625D02*
X96330375Y-158253625D01*
X91567875Y-191353625D02*
G75*
G02*
X96330375Y-186591075I4762525J25D01*
G01*
X110330375Y-158253625D02*
X110330375Y-144253625D01*
X267780375Y-177303625D02*
X281780375Y-177303625D01*
X158242875Y-163303625D02*
X158242875Y-177303625D01*
X172242875Y-163303625D02*
X158242875Y-163303625D01*
X158242875Y-177303625D02*
X172242875Y-177303625D01*
X115380375Y-120153625D02*
X129380375Y-120153625D01*
X148430375Y-163303625D02*
X134430375Y-163303625D01*
X148430375Y-177303625D02*
X148430375Y-163303625D01*
X96330375Y-177303625D02*
X110330375Y-177303625D01*
X143955375Y-139203625D02*
X157955375Y-139203625D01*
X115380375Y-158253625D02*
X129380375Y-158253625D01*
X148430375Y-144253625D02*
X134430375Y-144253625D01*
X157955375Y-139203625D02*
X157955375Y-125203625D01*
X172530375Y-87103625D02*
X172530375Y-101103625D01*
X210630375Y-87103625D02*
X210630375Y-101103625D01*
X115380375Y-101103625D02*
X129380375Y-101103625D01*
X110330375Y-87103625D02*
X96330375Y-87103625D01*
X134430375Y-177303625D02*
X148430375Y-177303625D01*
X129380375Y-87103625D02*
X115380375Y-87103625D01*
X115380375Y-87103625D02*
X115380375Y-101103625D01*
X96330375Y-101103625D02*
X110330375Y-101103625D01*
X96330375Y-184591125D02*
X106105375Y-184591125D01*
X129380375Y-101103625D02*
X129380375Y-87103625D01*
X115380375Y-144253625D02*
X115380375Y-158253625D01*
X148430375Y-158253625D02*
X148430375Y-144253625D01*
X110330375Y-144253625D02*
X96330375Y-144253625D01*
X105855375Y-125203625D02*
X105855375Y-139203625D01*
X138905375Y-125203625D02*
X124905375Y-125203625D01*
X148430375Y-87103625D02*
X134430375Y-87103625D01*
X229680375Y-106153625D02*
X229680375Y-120153625D01*
X129380375Y-120153625D02*
X129380375Y-106153625D01*
X186530375Y-144253625D02*
X172530375Y-144253625D01*
X281780375Y-87103625D02*
X267780375Y-87103625D01*
X105855375Y-139203625D02*
X119855375Y-139203625D01*
X96330375Y-87103625D02*
X96330375Y-101103625D01*
X262730375Y-177303625D02*
X262730375Y-163303625D01*
X110330375Y-120153625D02*
X110330375Y-106153625D01*
X229680375Y-101103625D02*
X243680375Y-101103625D01*
X167480375Y-158253625D02*
X167480375Y-144253625D01*
X110330375Y-101103625D02*
X110330375Y-87103625D01*
X172242875Y-177303625D02*
X172242875Y-163303625D01*
X134430375Y-87103625D02*
X134430375Y-101103625D01*
X129380375Y-144253625D02*
X115380375Y-144253625D01*
X210630375Y-106153625D02*
X210630375Y-120153625D01*
X134430375Y-144253625D02*
X134430375Y-158253625D01*
X96330375Y-120153625D02*
X110330375Y-120153625D01*
X286830375Y-84578625D02*
X286830375Y-179828625D01*
X119855375Y-125203625D02*
X105855375Y-125203625D01*
X96330375Y-106153625D02*
X96330375Y-120153625D01*
X243680375Y-101103625D02*
X243680375Y-87103625D01*
X115380375Y-106153625D02*
X115380375Y-120153625D01*
X124905375Y-139203625D02*
X138905375Y-139203625D01*
X96330375Y-158253625D02*
X110330375Y-158253625D01*
X248730375Y-87103625D02*
X248730375Y-101103625D01*
M02*
